<svg xmlns="http://www.w3.org/2000/svg" xmlns:xlink="http://www.w3.org/1999/xlink" viewBox="0 0 245 50"><defs><style>.cls-1{isolation:isolate;}.cls-2{fill:#f4f4f5;}.cls-3{fill:#4e4e4e;}.cls-4,.cls-5{mix-blend-mode:multiply;}.cls-4{fill:url(#New_Gradient_Swatch_2);}.cls-5{fill:url(#New_Gradient_Swatch_2-2);}.cls-6{fill:#3dae2b;}.cls-7{fill:#414042;}</style><linearGradient id="New_Gradient_Swatch_2" x1="56.42" y1="44.83" x2="56.42" y2="39.7" gradientUnits="userSpaceOnUse"><stop offset="0" stop-color="#fff"/><stop offset="1" stop-color="#bbbdbf"/></linearGradient><linearGradient id="New_Gradient_Swatch_2-2" x1="30.97" y1="44.93" x2="30.97" y2="39.7" xlink:href="#New_Gradient_Swatch_2"/></defs><title>Banner245-SystemConfigurator</title><g class="cls-1"><g id="Layer_1" data-name="Layer 1"><rect class="cls-2" width="245" height="50"/></g><g id="system_configurator" data-name="system configurator"><path class="cls-3" d="M61.32,7.15H51.53a3.5,3.5,0,0,0-3.5,3.5V35.5a3.5,3.5,0,0,0,3.5,3.5h9.79a3.5,3.5,0,0,0,3.5-3.5V10.65A3.5,3.5,0,0,0,61.32,7.15Zm0,30.45H51.53a2.1,2.1,0,0,1-2.1-2.1h14A2.1,2.1,0,0,1,61.32,37.6Zm.81-19.26v1.81H50.71V18.34Zm-11.42-2.6V13.93H62.13v1.81Zm.68,13.46a.75.75,0,0,1,.75.75.76.76,0,1,1-.75-.75Zm0,2.78a.76.76,0,0,1,.75.76.76.76,0,0,1-1.51,0A.76.76,0,0,1,51.39,32Zm-2-21.33a2.1,2.1,0,0,1,2.1-2.1h9.79a2.1,2.1,0,0,1,2.1,2.1Z"/><path class="cls-4" d="M64.82,45V43.2a3.5,3.5,0,0,0-3.5-3.5H51.53A3.5,3.5,0,0,0,48,43.2V45Zm-1.4-1.8h-14a2.1,2.1,0,0,1,2.1-2.1h9.79A2.1,2.1,0,0,1,63.42,43.2Z"/><polygon class="cls-5" points="35.21 40.93 33.8 44.93 28.14 44.93 26.73 40.93 24.09 40.93 24.09 39.7 37.85 39.7 37.85 40.93 35.21 40.93"/><path class="cls-3" d="M45,12.31H17a1.38,1.38,0,0,0-1.38,1.38V32.14A1.38,1.38,0,0,0,17,33.53H45a1.38,1.38,0,0,0,1.38-1.39V13.69A1.38,1.38,0,0,0,45,12.31ZM43.94,30H18V15.17H43.94Z"/><polygon class="cls-3" points="33.45 37.06 32.4 34.82 29.54 34.82 28.49 37.06 24.09 37.77 24.09 39 37.85 39 37.85 37.77 33.45 37.06"/><path class="cls-3" d="M35.5,17.51l-.31,1.61a1,1,0,1,1-2-.38l.31-1.62a2.58,2.58,0,0,0-1.92,3.25l-1,1c.2.19.36.36.46.46a1.36,1.36,0,0,1,1.81.12l.69.69-3.05,3.05L29.8,25a1.38,1.38,0,0,1-.4-1,1.43,1.43,0,0,1,.28-.83c-.1-.1-.26-.27-.46-.46L26,25.92a1.51,1.51,0,0,0,2.13,2.13L34,22.24a2.59,2.59,0,0,0,1.55-4.73Z"/><path class="cls-3" d="M36.07,25.81l-3.54-3.54a.93.93,0,0,0-1.31,0l-.19.19-2.84-2.84-.63-1.51-1.81-.93L25,17.9,26,19.71l1.52.63,2.84,2.84-.19.19a.93.93,0,0,0,0,1.31l3.54,3.54a.93.93,0,0,0,1.31,0l1.1-1.09A.94.94,0,0,0,36.07,25.81Zm-1.18,1.24a.33.33,0,0,1-.47,0l-3.13-3.13a.33.33,0,0,1,0-.47.34.34,0,0,1,.48,0l3.12,3.12A.34.34,0,0,1,34.89,27.05Z"/><path class="cls-6" d="M80.58,10.56h1.17v.67h0a1.72,1.72,0,0,1,1.44-.79,1.41,1.41,0,0,1,1.42.86,1.66,1.66,0,0,1,1.51-.86c1.2,0,1.53.82,1.53,1.9v3.05H86.42V12.51c0-.45,0-1.09-.73-1.09s-.93,1-.93,1.62v2.35H83.5V12.51c0-.45,0-1.09-.72-1.09s-.94,1-.94,1.62v2.35H80.58Z"/><path class="cls-6" d="M92.81,15.12a3.34,3.34,0,0,1-1.66.38A2.29,2.29,0,0,1,88.63,13a2.27,2.27,0,0,1,2.24-2.56c1.79,0,2.3,1.23,2.3,2.92H89.83a1.26,1.26,0,0,0,1.38,1.22,3.27,3.27,0,0,0,1.6-.48ZM92,12.5c0-.61-.32-1.14-1-1.14a1.09,1.09,0,0,0-1.11,1.14Z"/><path class="cls-6" d="M94.13,10.56h1.18v.67h0a1.72,1.72,0,0,1,1.44-.79,1.42,1.42,0,0,1,1.43.86,1.66,1.66,0,0,1,1.51-.86c1.19,0,1.53.82,1.53,1.9v3.05H100V12.51c0-.45,0-1.09-.72-1.09s-.94,1-.94,1.62v2.35H97.05V12.51c0-.45,0-1.09-.72-1.09s-.94,1-.94,1.62v2.35H94.13Z"/><path class="cls-6" d="M104.7,10.44A2.43,2.43,0,0,1,107.24,13a2.53,2.53,0,0,1-5.06,0A2.42,2.42,0,0,1,104.7,10.44Zm0,4.09c1,0,1.22-.87,1.22-1.67a1.23,1.23,0,1,0-2.43,0C103.49,13.65,103.75,14.53,104.7,14.53Z"/><path class="cls-6" d="M108.25,10.56h1.12v1.1h0a1.49,1.49,0,0,1,1.33-1.22,1.26,1.26,0,0,1,.38,0v1.27a1.22,1.22,0,0,0-.56-.1c-1,0-1,1.27-1,2v1.77h-1.26Z"/><path class="cls-6" d="M113.88,14.09h0l1.16-3.53h1.28l-1.82,4.79c-.4,1.07-.69,2.12-2,2.12a3,3,0,0,1-.89-.13l.08-.93a1.76,1.76,0,0,0,.65.09.79.79,0,0,0,.81-.87l-1.85-5.07h1.39Z"/><path class="cls-6" d="M120.5,15.31a6.15,6.15,0,0,1-1.42.19,1.94,1.94,0,0,1-2.2-2.16,2.74,2.74,0,0,1,2.62-2.85,1.66,1.66,0,0,1,1.8,1.83,4.74,4.74,0,0,1-.09.87h-3.37c0,.11,0,.2,0,.3,0,1,.62,1.3,1.47,1.3a3.6,3.6,0,0,0,1.35-.29Zm-.11-2.77a2.62,2.62,0,0,0,0-.37.92.92,0,0,0-1-1,1.65,1.65,0,0,0-1.46,1.34Z"/><path class="cls-6" d="M123.47,12.87l-1-2.27h1l.72,1.73,1.43-1.73h1.07l-2,2.3,1.16,2.49h-1L124,13.51l-1.59,1.88h-1.1Z"/><path class="cls-6" d="M127.29,12.19c.09-.53.19-1.06.25-1.59h.83l-.16.74h0a1.89,1.89,0,0,1,1.7-.85,1.67,1.67,0,0,1,1.7,1.82c0,1.76-.81,3.19-2.41,3.19a1.49,1.49,0,0,1-1.56-.82h0l-.58,2.68h-.88Zm1.81,2.6c1,0,1.6-1.21,1.6-2.4a1,1,0,0,0-1.07-1.19c-1,0-1.72,1.15-1.72,2.33A1.16,1.16,0,0,0,129.1,14.79Z"/><path class="cls-6" d="M133.24,11.34c0-.2.09-.45.13-.74h.82l-.15.76h0a1.84,1.84,0,0,1,1.63-.87,1.13,1.13,0,0,1,.41.09l-.2.77a1.42,1.42,0,0,0-.37-.09c-1.09,0-1.63,1.18-1.75,1.77l-.5,2.36h-.88Z"/><path class="cls-6" d="M139.78,15.31a6.06,6.06,0,0,1-1.41.19,1.94,1.94,0,0,1-2.21-2.16,2.74,2.74,0,0,1,2.62-2.85,1.66,1.66,0,0,1,1.8,1.83,5.85,5.85,0,0,1-.08.87h-3.37a1.6,1.6,0,0,0,0,.3c0,1,.62,1.3,1.47,1.3a3.6,3.6,0,0,0,1.35-.29Zm-.11-2.77a2.62,2.62,0,0,0,0-.37.92.92,0,0,0-1-1,1.65,1.65,0,0,0-1.47,1.34Z"/><path class="cls-6" d="M144.32,11.45a2.38,2.38,0,0,0-.95-.25c-.39,0-.9.11-.9.59,0,.81,1.64.85,1.64,2.18a1.62,1.62,0,0,1-1.81,1.53,3.56,3.56,0,0,1-1.4-.22l.17-.76a2.92,2.92,0,0,0,1.1.27c.47,0,1-.2,1-.74,0-.82-1.63-.94-1.63-2.15,0-1,1-1.41,1.8-1.41a3.41,3.41,0,0,1,1.25.26Z"/><path class="cls-6" d="M148,11.45a2.38,2.38,0,0,0-1-.25c-.38,0-.89.11-.89.59,0,.81,1.64.85,1.64,2.18a1.62,1.62,0,0,1-1.82,1.53,3.5,3.5,0,0,1-1.39-.22l.17-.76a2.92,2.92,0,0,0,1.09.27c.48,0,1-.2,1-.74,0-.82-1.64-.94-1.64-2.15,0-1,1-1.41,1.81-1.41a3.32,3.32,0,0,1,1.24.26Z"/><path class="cls-7" d="M87.25,19.43A5.85,5.85,0,0,0,85,19a1.56,1.56,0,0,0-1.76,1.55c0,1.94,4.89,1.12,4.89,4.87,0,2.45-1.93,3.38-4.19,3.38a9.84,9.84,0,0,1-2.86-.44l.2-2a5.47,5.47,0,0,0,2.53.68c.85,0,2-.43,2-1.44,0-2.13-4.9-1.25-4.9-4.94,0-2.5,1.94-3.41,3.9-3.41a8.51,8.51,0,0,1,2.68.4Z"/><path class="cls-7" d="M93.38,26.33h0l2-6h2.18l-3.09,8.18c-.69,1.82-1.18,3.62-3.42,3.62a5.18,5.18,0,0,1-1.52-.23l.14-1.58a3.33,3.33,0,0,0,1.1.14A1.34,1.34,0,0,0,92.18,29L89,20.31h2.37Z"/><path class="cls-7" d="M103.75,22a5.18,5.18,0,0,0-1.93-.35c-.57,0-1.26.2-1.26.91,0,1.31,3.73.48,3.73,3.46,0,1.92-1.71,2.69-3.46,2.69a9.52,9.52,0,0,1-2.43-.36l.13-1.76a4.64,4.64,0,0,0,2.11.55c.54,0,1.41-.21,1.41-1,0-1.62-3.73-.51-3.73-3.49,0-1.78,1.55-2.56,3.23-2.56a10.12,10.12,0,0,1,2.34.3Z"/><path class="cls-7" d="M106.66,21.88h-1.59V20.31h1.59V18.66L108.8,18v2.34h1.91v1.57H108.8v3.84c0,.7.19,1.36,1,1.36a2,2,0,0,0,1-.22l.06,1.69a5.6,5.6,0,0,1-1.59.2,2.42,2.42,0,0,1-2.6-2.68Z"/><path class="cls-7" d="M118.79,28.09a5.73,5.73,0,0,1-2.84.66,3.92,3.92,0,0,1-4.3-4.28c0-2.38,1.26-4.35,3.82-4.35,3.06,0,3.92,2.09,3.92,5H113.7a2.15,2.15,0,0,0,2.35,2.08,5.56,5.56,0,0,0,2.74-.84Zm-1.45-4.47c-.06-1-.54-1.93-1.74-1.93a1.86,1.86,0,0,0-1.9,1.93Z"/><path class="cls-7" d="M121,20.31h2v1.15h0a2.89,2.89,0,0,1,2.45-1.34A2.4,2.4,0,0,1,128,21.57a2.83,2.83,0,0,1,2.58-1.45c2,0,2.61,1.39,2.61,3.23v5.2H131V23.64c0-.77,0-1.86-1.24-1.86-1.42,0-1.6,1.7-1.6,2.77v4H126V23.64c0-.77,0-1.86-1.24-1.86-1.42,0-1.6,1.7-1.6,2.77v4H121Z"/><path class="cls-7" d="M148.07,28.39a11.53,11.53,0,0,1-2.55.36c-3.62,0-6.13-1.81-6.13-5.59s2.34-6,6.13-6a7.38,7.38,0,0,1,2.53.46l-.16,1.89a4.63,4.63,0,0,0-2.42-.59A3.73,3.73,0,0,0,141.73,23a3.68,3.68,0,0,0,3.79,4,6.29,6.29,0,0,0,2.45-.46Z"/><path class="cls-7" d="M153.3,20.12a4.13,4.13,0,0,1,4.32,4.37,4.32,4.32,0,0,1-8.63,0A4.13,4.13,0,0,1,153.3,20.12Zm0,7c1.64,0,2.08-1.47,2.08-2.85a2.1,2.1,0,1,0-4.15,0C151.23,25.59,151.66,27.08,153.3,27.08Z"/><path class="cls-7" d="M159.29,20.31h2v1.12h0a3.08,3.08,0,0,1,2.7-1.31c2,0,2.81,1.37,2.81,3.23v5.2h-2.15v-4.4c0-1,0-2.37-1.39-2.37-1.55,0-1.89,1.68-1.89,2.74v4h-2.15Z"/><path class="cls-7" d="M169.85,21.88h-1.58V20.31h1.58V19.16a2.52,2.52,0,0,1,2.63-2.8,8.12,8.12,0,0,1,1.57.17l-.18,1.78a1.66,1.66,0,0,0-.93-.29c-.72,0-.94.62-.94,1.27v1h1.87v1.57H172v6.67h-2.15Zm5.49-5.12h2.15v2h-2.15Zm0,3.55h2.15v8.24h-2.15Z"/><path class="cls-7" d="M187.31,20.31v7.44c0,2.24-.89,4.36-4.35,4.36a7.27,7.27,0,0,1-2.85-.56l.18-1.83a6.15,6.15,0,0,0,2.4.72c2.37,0,2.48-1.77,2.48-3.2h0a3,3,0,0,1-2.56,1.31c-2.44,0-3.37-1.95-3.37-4.16,0-2,1-4.27,3.49-4.27a2.74,2.74,0,0,1,2.53,1.31h0V20.31Zm-2.14,4c0-1.41-.55-2.56-1.79-2.56-1.46,0-1.92,1.35-1.92,2.61s.59,2.5,1.82,2.5S185.17,25.72,185.17,24.34Z"/><path class="cls-7" d="M197.09,28.55h-2V27.43h0a3.43,3.43,0,0,1-2.7,1.32c-1.95,0-2.8-1.38-2.8-3.24v-5.2h2.14v4.4c0,1,0,2.37,1.4,2.37,1.55,0,1.88-1.68,1.88-2.74v-4h2.15Z"/><path class="cls-7" d="M199.34,20.31h1.91v1.87h0a2.52,2.52,0,0,1,2.26-2.06,2.46,2.46,0,0,1,.65.06v2.16a2.2,2.2,0,0,0-1-.17c-1.74,0-1.74,2.17-1.74,3.36v3h-2.15Z"/><path class="cls-7" d="M205.89,20.74a7.42,7.42,0,0,1,2.86-.62c2.51,0,3.55,1,3.55,3.47v1.06c0,.83,0,1.45,0,2.06s0,1.2.09,1.84h-1.89a8.74,8.74,0,0,1-.09-1.23h0a3,3,0,0,1-2.55,1.43A2.63,2.63,0,0,1,205,26.3a2.42,2.42,0,0,1,1.41-2.36,6.51,6.51,0,0,1,2.77-.48h1.18c0-1.33-.59-1.77-1.85-1.77a4.33,4.33,0,0,0-2.55.89Zm2.51,6.44a1.81,1.81,0,0,0,1.5-.74,2.69,2.69,0,0,0,.45-1.7h-.93c-1,0-2.38.16-2.38,1.43C207,26.87,207.63,27.18,208.4,27.18Z"/><path class="cls-7" d="M215.12,21.88h-1.59V20.31h1.59V18.66l2.14-.69v2.34h1.91v1.57h-1.91v3.84c0,.7.2,1.36,1,1.36a2,2,0,0,0,1-.22l.06,1.69a5.52,5.52,0,0,1-1.58.2,2.43,2.43,0,0,1-2.61-2.68Z"/><path class="cls-7" d="M224.42,20.12a4.13,4.13,0,0,1,4.32,4.37,4.32,4.32,0,0,1-8.63,0A4.13,4.13,0,0,1,224.42,20.12Zm0,7c1.64,0,2.08-1.47,2.08-2.85a2.1,2.1,0,1,0-4.15,0C222.35,25.59,222.78,27.08,224.42,27.08Z"/><path class="cls-7" d="M230.46,20.31h1.91v1.87h0a2.39,2.39,0,0,1,2.91-2v2.16a2.23,2.23,0,0,0-1-.17c-1.74,0-1.74,2.17-1.74,3.36v3h-2.15Z"/><path class="cls-7" d="M84.45,39.55a3.58,3.58,0,0,1-1.08.16A2.52,2.52,0,0,1,80.58,37a3.39,3.39,0,0,1,3.56-3.43,3.77,3.77,0,0,1,1.41.28l-.25.73a2.76,2.76,0,0,0-1.14-.26A2.57,2.57,0,0,0,81.48,37a1.82,1.82,0,0,0,2,1.92,3,3,0,0,0,1.07-.2Z"/><path class="cls-7" d="M89.35,39c0,.17-.08.4-.12.66h-.75l.14-.69h0a1.65,1.65,0,0,1-1.48.79,1.28,1.28,0,0,1-1.44-1.36,4.27,4.27,0,0,1,.1-.79l.48-2.29h.8l-.54,2.6a3.58,3.58,0,0,0,0,.4.75.75,0,0,0,.79.79c1,0,1.47-1.07,1.58-1.6l.46-2.19h.8Z"/><path class="cls-7" d="M93.41,36a2.19,2.19,0,0,0-.87-.22c-.35,0-.81.09-.81.52,0,.74,1.48.78,1.48,2a1.47,1.47,0,0,1-1.64,1.38,3.25,3.25,0,0,1-1.27-.2l.16-.69a2.57,2.57,0,0,0,1,.24c.43,0,.91-.17.91-.67,0-.74-1.48-.85-1.48-1.94,0-.92.92-1.28,1.63-1.28a3.09,3.09,0,0,1,1.13.24Z"/><path class="cls-7" d="M94.27,35.27h1l.21-1,.86-.3L96,35.27h1.19l-.13.65H95.9l-.4,1.86a6.77,6.77,0,0,0-.12.82c0,.3.17.46.58.46a1.55,1.55,0,0,0,.56-.11l-.12.67a3.21,3.21,0,0,1-.78.09.93.93,0,0,1-1-1,6.42,6.42,0,0,1,.15-1l.38-1.81h-1Z"/><path class="cls-7" d="M99.82,35.17a1.77,1.77,0,0,1,1.92,1.9,2.4,2.4,0,0,1-2.42,2.64,1.78,1.78,0,0,1-2-1.93A2.41,2.41,0,0,1,99.82,35.17Zm-.51,3.89c.9,0,1.58-1,1.58-2a1.13,1.13,0,0,0-1.1-1.25c-1.06,0-1.59,1.12-1.59,2A1.08,1.08,0,0,0,99.31,39.06Z"/><path class="cls-7" d="M103.24,35.77c0-.16.05-.31.08-.5h.75l-.1.6h0a1.59,1.59,0,0,1,1.37-.7,1.11,1.11,0,0,1,1.15.76,1.92,1.92,0,0,1,1.54-.76,1.13,1.13,0,0,1,1.21,1.13,4.34,4.34,0,0,1-.13.91l-.5,2.4h-.8l.58-2.75a2.67,2.67,0,0,0,0-.4.6.6,0,0,0-.64-.64c-.81,0-1.26.94-1.4,1.61l-.49,2.18h-.79l.57-2.75a1.78,1.78,0,0,0,.05-.4.6.6,0,0,0-.63-.64c-.81,0-1.26.94-1.41,1.61l-.48,2.18h-.8Z"/><path class="cls-7" d="M115.75,36a1.66,1.66,0,0,0-.77-.21,1.78,1.78,0,0,0-1.67,2c0,.81.41,1.28,1.18,1.28a2.61,2.61,0,0,0,.87-.19l-.14.74a3.39,3.39,0,0,1-.84.1,1.71,1.71,0,0,1-1.92-1.81,2.46,2.46,0,0,1,2.37-2.73,3.38,3.38,0,0,1,1.12.17Z"/><path class="cls-7" d="M118.71,35.17a1.78,1.78,0,0,1,1.92,1.9,2.4,2.4,0,0,1-2.42,2.64,1.78,1.78,0,0,1-2-1.93A2.41,2.41,0,0,1,118.71,35.17Zm-.51,3.89c.9,0,1.58-1,1.58-2a1.13,1.13,0,0,0-1.1-1.25c-1.07,0-1.59,1.12-1.59,2A1.08,1.08,0,0,0,118.2,39.06Z"/><path class="cls-7" d="M122.08,35.94a6.41,6.41,0,0,0,.12-.67H123l-.13.69h0a1.67,1.67,0,0,1,1.48-.79,1.29,1.29,0,0,1,1.45,1.36,3.42,3.42,0,0,1-.11.79l-.47,2.29h-.8l.53-2.59a2.5,2.5,0,0,0,0-.41.75.75,0,0,0-.79-.79c-1,0-1.47,1.07-1.58,1.6l-.46,2.19h-.8Z"/><path class="cls-7" d="M127.77,35.92h-1l.12-.65h1.06l.1-.42c.16-.72.47-1.72,1.72-1.72a2.29,2.29,0,0,1,.62.1l-.17.63a1.23,1.23,0,0,0-.38-.08c-.7,0-.89.58-1,1.09l-.09.4h1.15l-.13.65h-1.16l-.8,3.69H127Zm3-.65h.8l-.92,4.34h-.8Zm1.08-1H131l.18-.9h.91Z"/><path class="cls-7" d="M136.86,35.27l-1,4.65a2.18,2.18,0,0,1-2.33,1.58,3.82,3.82,0,0,1-1.45-.32l.18-.71a3.17,3.17,0,0,0,1.38.38,1.5,1.5,0,0,0,1.52-1.27l.11-.46h0a1.49,1.49,0,0,1-1.29.49,1.65,1.65,0,0,1-1.62-1.73c0-1.6.94-2.72,2.19-2.71A1.46,1.46,0,0,1,136,36h0l.16-.77ZM134.17,39c.7,0,1.49-.54,1.49-2a1.07,1.07,0,0,0-1.08-1.18c-.93,0-1.38,1.18-1.38,2A1,1,0,0,0,134.17,39Z"/><path class="cls-7" d="M141.29,39c0,.17-.08.4-.12.66h-.74l.13-.69h0a1.65,1.65,0,0,1-1.47.79,1.29,1.29,0,0,1-1.45-1.36,4.27,4.27,0,0,1,.1-.79l.48-2.29h.8l-.54,2.6a3.58,3.58,0,0,0,0,.4.75.75,0,0,0,.79.79c1,0,1.47-1.07,1.58-1.6l.46-2.19h.8Z"/><path class="cls-7" d="M143.33,35.94a6.41,6.41,0,0,0,.12-.67h.75l-.13.69h0a1.67,1.67,0,0,1,1.48-.79,1.12,1.12,0,0,1,.37.08l-.18.7a1.09,1.09,0,0,0-.34-.08c-1,0-1.47,1.07-1.58,1.61l-.45,2.13h-.8Z"/><path class="cls-7" d="M149.27,39.53a5.57,5.57,0,0,1-1.29.18,1.75,1.75,0,0,1-2-2,2.48,2.48,0,0,1,2.37-2.59A1.51,1.51,0,0,1,150,36.83a4.91,4.91,0,0,1-.08.79h-3a1.24,1.24,0,0,0,0,.27c0,.91.57,1.17,1.34,1.17a3.3,3.3,0,0,0,1.22-.26ZM149.16,37a2,2,0,0,0,0-.33.82.82,0,0,0-.92-.87A1.49,1.49,0,0,0,147,37Z"/><path class="cls-7" d="M152.49,40.77a.72.72,0,0,0,.35.08c.48,0,.81-.33,1.14-1l-.69-4.58h.83l.5,3.46h0l1.89-3.46h.85l-2.95,5.15c-.39.67-.68,1.08-1.47,1.08a3.23,3.23,0,0,1-.61-.06Z"/><path class="cls-7" d="M159.8,35.17a1.78,1.78,0,0,1,1.92,1.9,2.4,2.4,0,0,1-2.42,2.64,1.79,1.79,0,0,1-2-1.93A2.42,2.42,0,0,1,159.8,35.17Zm-.51,3.89c.9,0,1.58-1,1.58-2a1.14,1.14,0,0,0-1.11-1.25c-1.06,0-1.59,1.12-1.59,2A1.08,1.08,0,0,0,159.29,39.06Z"/><path class="cls-7" d="M166.33,39a5.73,5.73,0,0,0-.12.66h-.75l.14-.69h0a1.67,1.67,0,0,1-1.48.79,1.29,1.29,0,0,1-1.45-1.36,4.29,4.29,0,0,1,.11-.79l.47-2.29h.8l-.53,2.6a2.28,2.28,0,0,0-.05.4.75.75,0,0,0,.79.79c1,0,1.47-1.07,1.59-1.6l.45-2.19h.8Z"/><path class="cls-7" d="M168.37,35.94c0-.18.08-.41.12-.67h.74l-.13.69h0a1.68,1.68,0,0,1,1.48-.79,1.07,1.07,0,0,1,.37.08l-.18.7a1,1,0,0,0-.34-.08c-1,0-1.47,1.07-1.58,1.61l-.45,2.13h-.8Z"/><path class="cls-7" d="M174,35.94c0-.18.08-.41.11-.67h.75l-.13.69h0a1.68,1.68,0,0,1,1.48-.79,1.29,1.29,0,0,1,1.45,1.36,4.06,4.06,0,0,1-.1.79l-.48,2.29h-.8l.54-2.59a4,4,0,0,0,0-.41.75.75,0,0,0-.79-.79c-1,0-1.47,1.07-1.58,1.6l-.46,2.19h-.8Z"/><path class="cls-7" d="M181.85,39.53a5.49,5.49,0,0,1-1.28.18,1.76,1.76,0,0,1-2-2A2.49,2.49,0,0,1,181,35.17a1.51,1.51,0,0,1,1.63,1.66,4.91,4.91,0,0,1-.08.79h-3.05a1.24,1.24,0,0,0,0,.27c0,.91.57,1.17,1.34,1.17A3.3,3.3,0,0,0,182,38.8Zm-.1-2.51a2,2,0,0,0,0-.33.83.83,0,0,0-.92-.87,1.49,1.49,0,0,0-1.32,1.2Z"/><path class="cls-7" d="M183.49,35.27h.8l.29,3.49h0l1.85-3.49h1l.3,3.49h0l1.8-3.49h.88l-2.37,4.34h-.92l-.34-3.49h0l-1.87,3.49H184Z"/><path class="cls-7" d="M196,36a1.66,1.66,0,0,0-.77-.21,1.78,1.78,0,0,0-1.67,2c0,.81.41,1.28,1.18,1.28a2.61,2.61,0,0,0,.87-.19l-.14.74a3.31,3.31,0,0,1-.83.1,1.72,1.72,0,0,1-1.93-1.81,2.46,2.46,0,0,1,2.37-2.73,3.3,3.3,0,0,1,1.12.17Z"/><path class="cls-7" d="M199,35.17a1.77,1.77,0,0,1,1.92,1.9,2.4,2.4,0,0,1-2.42,2.64,1.78,1.78,0,0,1-2-1.93A2.41,2.41,0,0,1,199,35.17Zm-.51,3.89c.9,0,1.58-1,1.58-2a1.13,1.13,0,0,0-1.1-1.25c-1.07,0-1.59,1.12-1.59,2A1.08,1.08,0,0,0,198.48,39.06Z"/><path class="cls-7" d="M202.41,35.77c0-.16.05-.31.08-.5h.75l-.1.6h0a1.58,1.58,0,0,1,1.37-.7,1.11,1.11,0,0,1,1.15.76,1.92,1.92,0,0,1,1.54-.76,1.13,1.13,0,0,1,1.21,1.13,4.34,4.34,0,0,1-.13.91l-.5,2.4H207l.58-2.75a2.67,2.67,0,0,0,0-.4.6.6,0,0,0-.64-.64c-.81,0-1.26.94-1.4,1.61l-.49,2.18h-.8l.58-2.75a1.78,1.78,0,0,0,.05-.4.6.6,0,0,0-.64-.64c-.8,0-1.25.94-1.4,1.61l-.48,2.18h-.8Z"/><path class="cls-7" d="M209.73,36.71c.08-.48.17-1,.23-1.44h.74l-.14.67h0a1.7,1.7,0,0,1,1.54-.77,1.52,1.52,0,0,1,1.54,1.65c0,1.59-.74,2.89-2.18,2.89-.76,0-1.21-.25-1.41-.75h0l-.52,2.43h-.8Zm1.64,2.35c.91,0,1.44-1.09,1.44-2.17a.93.93,0,0,0-1-1.07c-.93,0-1.55,1-1.55,2.11A1.05,1.05,0,0,0,211.37,39.06Z"/><path class="cls-7" d="M218.27,39a5.73,5.73,0,0,0-.12.66h-.75l.14-.69h0a1.65,1.65,0,0,1-1.48.79,1.28,1.28,0,0,1-1.44-1.36,4.27,4.27,0,0,1,.1-.79l.47-2.29h.8l-.53,2.6a2.15,2.15,0,0,0,0,.4.75.75,0,0,0,.79.79c1,0,1.47-1.07,1.58-1.6l.46-2.19h.8Z"/><path class="cls-7" d="M219.88,35.27h1l.22-1,.85-.3-.27,1.3h1.19l-.13.65h-1.19l-.4,1.86a5.33,5.33,0,0,0-.13.82c0,.3.17.46.58.46a1.55,1.55,0,0,0,.56-.11l-.12.67a3.15,3.15,0,0,1-.78.09.93.93,0,0,1-1-1,6.42,6.42,0,0,1,.15-1l.38-1.81h-1Z"/><path class="cls-7" d="M226.24,39.53a5.49,5.49,0,0,1-1.28.18,1.76,1.76,0,0,1-2-2,2.48,2.48,0,0,1,2.37-2.59A1.5,1.5,0,0,1,227,36.83a4.94,4.94,0,0,1-.07.79h-3a1.24,1.24,0,0,0,0,.27c0,.91.56,1.17,1.34,1.17a3.34,3.34,0,0,0,1.22-.26Zm-.1-2.51a2,2,0,0,0,0-.33.83.83,0,0,0-.92-.87,1.49,1.49,0,0,0-1.33,1.2Z"/><path class="cls-7" d="M228.34,35.94a6.41,6.41,0,0,0,.12-.67h.75l-.14.69h0a1.65,1.65,0,0,1,1.48-.79,1.07,1.07,0,0,1,.36.08l-.18.7a1,1,0,0,0-.33-.08c-1,0-1.48,1.07-1.59,1.61l-.45,2.13h-.8Z"/><path class="cls-7" d="M231.55,38.66h.95l-.2,1h-1Zm1.06-5h1l-1.05,4.26h-.78Z"/></g></g></svg>