<svg xmlns="http://www.w3.org/2000/svg" viewBox="0 0 245 50"><defs><style>.cls-1{fill:#f4f4f5;}.cls-2{fill:#3dae2b;}.cls-3{fill:#414042;}.cls-4{fill:#4d4d4f;}</style></defs><title>Banner245-Clearance</title><g id="Layer_1" data-name="Layer 1"><rect class="cls-1" width="245" height="50"/></g><g id="Layer_3" data-name="Layer 3"><path class="cls-2" d="M59.91,11.59h1.18v.67h0a1.72,1.72,0,0,1,1.44-.79,1.42,1.42,0,0,1,1.43.86,1.66,1.66,0,0,1,1.51-.86c1.19,0,1.53.82,1.53,1.9v3.05H65.75V13.54c0-.45,0-1.09-.72-1.09s-.94,1-.94,1.62v2.35H62.83V13.54c0-.45,0-1.09-.72-1.09s-.94,1-.94,1.62v2.35H59.91Z"/><path class="cls-2" d="M72.15,16.15a3.38,3.38,0,0,1-1.67.38A2.29,2.29,0,0,1,68,14a2.27,2.27,0,0,1,2.24-2.56c1.8,0,2.3,1.23,2.3,2.92H69.16a1.26,1.26,0,0,0,1.38,1.22,3.21,3.21,0,0,0,1.61-.49Zm-.85-2.62c0-.61-.32-1.14-1-1.14a1.1,1.1,0,0,0-1.12,1.14Z"/><path class="cls-2" d="M73.47,11.59h1.17v.67h0a1.69,1.69,0,0,1,1.43-.79,1.42,1.42,0,0,1,1.43.86A1.66,1.66,0,0,1,79,11.47c1.19,0,1.53.82,1.53,1.9v3.05H79.3V13.54c0-.45,0-1.09-.72-1.09s-.94,1-.94,1.62v2.35H76.38V13.54c0-.45,0-1.09-.72-1.09s-.94,1-.94,1.62v2.35H73.47Z"/><path class="cls-2" d="M84,11.47A2.42,2.42,0,0,1,86.57,14a2.53,2.53,0,0,1-5.06,0A2.42,2.42,0,0,1,84,11.47Zm0,4.09c1,0,1.22-.87,1.22-1.68a1.23,1.23,0,1,0-2.43,0C82.83,14.68,83.08,15.56,84,15.56Z"/><path class="cls-2" d="M87.58,11.59H88.7v1.09h0A1.47,1.47,0,0,1,90,11.47a1.36,1.36,0,0,1,.39,0v1.27a1.25,1.25,0,0,0-.57-.11c-1,0-1,1.28-1,2v1.77H87.58Z"/><path class="cls-2" d="M93.21,15.11h0l1.16-3.52h1.28l-1.81,4.79c-.4,1.07-.7,2.12-2,2.12a3.36,3.36,0,0,1-.89-.13l.08-.93a1.76,1.76,0,0,0,.65.09.79.79,0,0,0,.82-.87l-1.85-5.07h1.39Z"/><path class="cls-2" d="M99.83,16.33a5.58,5.58,0,0,1-1.41.2,1.94,1.94,0,0,1-2.21-2.16,2.74,2.74,0,0,1,2.62-2.85,1.66,1.66,0,0,1,1.8,1.83,5.85,5.85,0,0,1-.08.87H97.18a1.6,1.6,0,0,0,0,.3c0,1,.62,1.3,1.47,1.3a3.6,3.6,0,0,0,1.35-.29Zm-.11-2.76a2.73,2.73,0,0,0,0-.37.92.92,0,0,0-1-1,1.65,1.65,0,0,0-1.47,1.34Z"/><path class="cls-2" d="M102.81,13.89l-1-2.26h1l.71,1.73,1.44-1.73H106l-2,2.3,1.16,2.49h-1l-.83-1.88-1.59,1.88h-1.1Z"/><path class="cls-2" d="M106.62,13.22c.1-.54.19-1.06.26-1.59h.82l-.16.73h0a1.89,1.89,0,0,1,1.7-.84A1.67,1.67,0,0,1,111,13.34c0,1.76-.82,3.19-2.41,3.19-.84,0-1.34-.28-1.56-.82h0l-.57,2.68h-.89Zm1.81,2.6c1,0,1.6-1.21,1.6-2.4A1,1,0,0,0,109,12.23c-1,0-1.72,1.15-1.72,2.33A1.17,1.17,0,0,0,108.43,15.82Z"/><path class="cls-2" d="M112.57,12.36c0-.19.09-.45.13-.73h.83l-.15.76h0a1.83,1.83,0,0,1,1.63-.87,1.31,1.31,0,0,1,.4.08l-.2.78a1.26,1.26,0,0,0-.37-.09c-1.09,0-1.62,1.18-1.75,1.77l-.49,2.36h-.89Z"/><path class="cls-2" d="M119.12,16.33a5.66,5.66,0,0,1-1.42.2,1.94,1.94,0,0,1-2.2-2.16,2.73,2.73,0,0,1,2.61-2.85,1.66,1.66,0,0,1,1.81,1.83,4.74,4.74,0,0,1-.09.87h-3.37a1.6,1.6,0,0,0,0,.3c0,1,.62,1.3,1.48,1.3a3.6,3.6,0,0,0,1.35-.29ZM119,13.57c0-.15,0-.26,0-.37a.91.91,0,0,0-1-1,1.64,1.64,0,0,0-1.46,1.34Z"/><path class="cls-2" d="M123.66,12.48a2.27,2.27,0,0,0-1-.25c-.39,0-.89.11-.89.58,0,.82,1.63.86,1.63,2.19a1.62,1.62,0,0,1-1.81,1.53,3.6,3.6,0,0,1-1.4-.22l.17-.76a3,3,0,0,0,1.1.27c.48,0,1-.2,1-.74,0-.82-1.63-.94-1.63-2.15,0-1,1-1.41,1.8-1.41a3.41,3.41,0,0,1,1.25.26Z"/><path class="cls-2" d="M127.3,12.48a2.19,2.19,0,0,0-1-.25c-.39,0-.89.11-.89.58,0,.82,1.63.86,1.63,2.19a1.62,1.62,0,0,1-1.81,1.53,3.6,3.6,0,0,1-1.4-.22l.17-.76a3,3,0,0,0,1.1.27c.48,0,1-.2,1-.74,0-.82-1.63-.94-1.63-2.15,0-1,1-1.41,1.8-1.41a3.41,3.41,0,0,1,1.25.26Z"/><path class="cls-3" d="M70.28,31.31a13.13,13.13,0,0,1-3.52.48c-3.16,0-6.81-1.6-6.81-6.09,0-4.13,2.89-6.19,6.8-6.19a12.39,12.39,0,0,1,3.52.61L70,22.69a6.23,6.23,0,0,0-3.09-.83,3.6,3.6,0,0,0-3.71,3.84,3.63,3.63,0,0,0,4,3.74,8.35,8.35,0,0,0,3-.61Z"/><path class="cls-3" d="M71.73,19.72h3.16v9.52h4.9v2.34H71.73Z"/><path class="cls-3" d="M81.1,19.72h8.36V22h-5.2v2.45h4.91v2.24H84.26v2.69h5.39v2.24H81.1Z"/><path class="cls-3" d="M95.1,19.72H99l4.57,11.86h-3.47l-.88-2.53H94.75l-.94,2.53H90.6ZM97,22.16h0L95.48,26.8h3Z"/><path class="cls-3" d="M104.71,19.72h5.64c2.11,0,3.83,1,3.83,3a2.78,2.78,0,0,1-2.28,3v0c1,.28,1.09,1.18,1.68,2.62l1.16,3.23h-3.3l-.68-2.14c-.65-2-1.05-2.55-2.23-2.55h-.66v4.69h-3.16Zm3.16,4.93h.83c1,0,2.31,0,2.31-1.38,0-1.11-1.1-1.31-2.31-1.31h-.83Z"/><path class="cls-3" d="M119.67,19.72h3.87l4.58,11.86h-3.47l-.89-2.53h-4.45l-.93,2.53h-3.22Zm1.93,2.44h0L120,26.8h3Z"/><path class="cls-3" d="M129.41,19.72h4l4,8.05h0l0-8h2.89V31.58h-3.93l-4.14-8.11h0l.1,8.11h-2.9Z"/><path class="cls-3" d="M152.48,31.31a13.19,13.19,0,0,1-3.52.48c-3.16,0-6.82-1.6-6.82-6.09,0-4.13,2.89-6.19,6.8-6.19a12.33,12.33,0,0,1,3.52.61l-.26,2.57a6.21,6.21,0,0,0-3.09-.83,3.6,3.6,0,0,0-3.7,3.84,3.62,3.62,0,0,0,4,3.74,8.3,8.3,0,0,0,2.95-.61Z"/><path class="cls-3" d="M153.84,19.72h8.36V22H157v2.45h4.91v2.24H157v2.69h5.39v2.24h-8.55Z"/><path class="cls-3" d="M179.4,31.31a13.11,13.11,0,0,1-3.51.48c-3.17,0-6.82-1.6-6.82-6.09,0-4.13,2.89-6.19,6.8-6.19a12.33,12.33,0,0,1,3.52.61l-.26,2.57a6.21,6.21,0,0,0-3.09-.83,3.6,3.6,0,0,0-3.71,3.84,3.63,3.63,0,0,0,4,3.74,8.35,8.35,0,0,0,3-.61Z"/><path class="cls-3" d="M180.76,19.72h8.37V22h-5.2v2.45h4.91v2.24h-4.91v2.69h5.39v2.24h-8.56Z"/><path class="cls-3" d="M191.29,19.72h4l4,8.05h0l-.05-8h2.89V31.58h-3.93l-4.14-8.11h0l.1,8.11h-2.9Z"/><path class="cls-3" d="M206.5,22.06h-2.92V19.72h9v2.34h-2.93v9.52H206.5Z"/><path class="cls-3" d="M213.83,19.72h5.64c2.11,0,3.83,1,3.83,3a2.78,2.78,0,0,1-2.28,3v0c1,.28,1.09,1.18,1.68,2.62l1.16,3.23h-3.3l-.68-2.14c-.64-2-1-2.55-2.23-2.55H217v4.69h-3.16ZM217,24.65h.83c1,0,2.32,0,2.32-1.38,0-1.11-1.11-1.31-2.32-1.31H217Z"/><path class="cls-3" d="M225.17,19.72h8.36V22h-5.2v2.45h4.91v2.24h-4.91v2.69h5.39v2.24h-8.55Z"/><path class="cls-3" d="M62.79,36.05a1.82,1.82,0,0,0-.93-.25c-.48,0-1,.19-1,.8,0,.85,1.74.86,1.74,2.19a1.63,1.63,0,0,1-1.76,1.64,3.65,3.65,0,0,1-1.42-.29l.23-.67a2.15,2.15,0,0,0,1.07.32c.78,0,1.1-.49,1.1-.91,0-1-1.73-.85-1.73-2.27a1.56,1.56,0,0,1,1.68-1.45A3.21,3.21,0,0,1,63,35.4Z"/><path class="cls-3" d="M64,36.72a3.83,3.83,0,0,1,1-.19c.75,0,1.47.3,1.47,1.18a4.07,4.07,0,0,1-.06.59c-.14.69-.3,1.38-.39,2h-.64l.13-.62h0a1.35,1.35,0,0,1-1.21.71,1.06,1.06,0,0,1-1.19-1c0-1.06,1-1.36,2.21-1.36l.49,0a1,1,0,0,0,0-.25c0-.53-.35-.73-.85-.73a2.33,2.33,0,0,0-1.14.31Zm1.16,1.83c-.52,0-1.3.14-1.3.82,0,.33.29.5.62.5.69,0,1.13-.69,1.21-1.32Z"/><path class="cls-3" d="M67.5,36.62h.73l.37,3h0l1.66-3H71l-2.12,3.72h-.8Z"/><path class="cls-3" d="M73.8,40.28a5.11,5.11,0,0,1-1.1.15A1.51,1.51,0,0,1,71,38.75a2.13,2.13,0,0,1,2-2.22A1.29,1.29,0,0,1,74.42,38a4.63,4.63,0,0,1-.06.67H71.74a1,1,0,0,0,0,.24c0,.78.48,1,1.14,1a2.78,2.78,0,0,0,1-.22Zm-.09-2.16a1.49,1.49,0,0,0,0-.28.71.71,0,0,0-.79-.75,1.29,1.29,0,0,0-1.14,1Z"/><path class="cls-3" d="M79.2,36.53a1.52,1.52,0,0,1,1.64,1.63,2.06,2.06,0,0,1-2.07,2.27,1.53,1.53,0,0,1-1.7-1.66A2.07,2.07,0,0,1,79.2,36.53Zm-.44,3.34c.77,0,1.36-.87,1.36-1.71a1,1,0,0,0-1-1.07c-.91,0-1.37,1-1.37,1.73A.93.93,0,0,0,78.76,39.87Z"/><path class="cls-3" d="M82.1,37.19c0-.15.07-.35.1-.57h.64l-.12.59h0A1.43,1.43,0,0,1,84,36.53a1.11,1.11,0,0,1,1.24,1.17,3.84,3.84,0,0,1-.09.68l-.41,2h-.69l.46-2.22a1.7,1.7,0,0,0,0-.35.64.64,0,0,0-.68-.68c-.84,0-1.26.92-1.35,1.38l-.4,1.87h-.68Z"/><path class="cls-3" d="M88.74,36.72a3.76,3.76,0,0,1,1-.19c.76,0,1.48.3,1.48,1.18a3.06,3.06,0,0,1-.07.59c-.14.69-.29,1.38-.38,2h-.64l.13-.62h0a1.35,1.35,0,0,1-1.21.71,1.05,1.05,0,0,1-1.19-1c0-1.06,1-1.36,2.2-1.36l.5,0a1.87,1.87,0,0,0,0-.25c0-.53-.35-.73-.86-.73a2.39,2.39,0,0,0-1.14.31Zm1.16,1.83c-.52,0-1.3.14-1.3.82,0,.33.28.5.61.5.7,0,1.13-.69,1.21-1.32Z"/><path class="cls-3" d="M93.2,34.87h.68l-1.16,5.47H92Z"/><path class="cls-3" d="M95.23,34.87h.68l-1.16,5.47h-.68Z"/><path class="cls-3" d="M101.56,39.11c-.08.41-.16.82-.21,1.23h-.64c0-.17.06-.38.12-.57h0a1.28,1.28,0,0,1-1.27.66,1.41,1.41,0,0,1-1.38-1.56,2.1,2.1,0,0,1,1.93-2.34,1.24,1.24,0,0,1,1.19.7h0l.49-2.36h.68Zm-1.76.76c.87,0,1.26-1.07,1.26-1.77a.92.92,0,0,0-.93-1c-.81,0-1.23,1-1.23,1.73S99.18,39.87,99.8,39.87Z"/><path class="cls-3" d="M105.45,40.28a5.11,5.11,0,0,1-1.1.15,1.51,1.51,0,0,1-1.72-1.68,2.13,2.13,0,0,1,2-2.22,1.3,1.3,0,0,1,1.4,1.43,3.53,3.53,0,0,1-.07.67h-2.62a1.94,1.94,0,0,0,0,.24c0,.78.48,1,1.15,1a2.82,2.82,0,0,0,1-.22Zm-.09-2.16c0-.11,0-.19,0-.28a.71.71,0,0,0-.79-.75,1.27,1.27,0,0,0-1.13,1Z"/><path class="cls-3" d="M107.29,37c0-.13,0-.26.07-.42H108l-.08.51h0a1.38,1.38,0,0,1,1.18-.6,1,1,0,0,1,1,.65,1.62,1.62,0,0,1,1.32-.65,1,1,0,0,1,1,1,3.75,3.75,0,0,1-.11.78l-.43,2.06h-.68l.49-2.35a2.15,2.15,0,0,0,0-.36.52.52,0,0,0-.55-.54c-.69,0-1.08.81-1.2,1.38l-.42,1.87h-.69l.5-2.35a1.94,1.94,0,0,0,0-.36.51.51,0,0,0-.54-.54c-.7,0-1.08.81-1.21,1.38l-.41,1.87h-.69Z"/><path class="cls-3" d="M115.3,36.53A1.52,1.52,0,0,1,117,38.16a2.06,2.06,0,0,1-2.08,2.27,1.53,1.53,0,0,1-1.69-1.66A2.07,2.07,0,0,1,115.3,36.53Zm-.44,3.34c.78,0,1.36-.87,1.36-1.71a1,1,0,0,0-1-1.07c-.91,0-1.36,1-1.36,1.73A.93.93,0,0,0,114.86,39.87Z"/><path class="cls-3" d="M119.93,37.28a1.76,1.76,0,0,0-.74-.19c-.3,0-.7.08-.7.45,0,.63,1.27.66,1.27,1.7a1.26,1.26,0,0,1-1.41,1.19,2.56,2.56,0,0,1-1.08-.18l.13-.59a2.26,2.26,0,0,0,.85.21c.37,0,.78-.15.78-.57,0-.64-1.27-.73-1.27-1.67s.79-1.1,1.4-1.1a2.49,2.49,0,0,1,1,.21Z"/><path class="cls-3" d="M120.55,39.52h.88l-1,1.79h-.68Z"/><path class="cls-3" d="M125.1,37.19c0-.15.07-.35.1-.57h.64l-.11.59h0a1.43,1.43,0,0,1,1.27-.68.93.93,0,0,1,.31.07l-.15.6a1,1,0,0,0-.29-.07c-.85,0-1.26.92-1.36,1.38l-.39,1.83h-.68Z"/><path class="cls-3" d="M130.19,40.28a5.11,5.11,0,0,1-1.1.15,1.51,1.51,0,0,1-1.71-1.68,2.13,2.13,0,0,1,2-2.22,1.29,1.29,0,0,1,1.4,1.43,4.63,4.63,0,0,1-.06.67h-2.62a1,1,0,0,0,0,.24c0,.78.48,1,1.14,1a2.78,2.78,0,0,0,1.05-.22Zm-.09-2.16a1.49,1.49,0,0,0,0-.28.71.71,0,0,0-.79-.75,1.29,1.29,0,0,0-1.14,1Z"/><path class="cls-3" d="M132.42,37.18h-.89l.1-.56h.91l.08-.36c.14-.62.41-1.48,1.49-1.48a1.93,1.93,0,0,1,.52.08l-.14.55a.93.93,0,0,0-.33-.07c-.6,0-.76.49-.86.94l-.07.34h1l-.1.56h-1l-.69,3.16h-.69Z"/><path class="cls-3" d="M137.54,39.77c0,.15-.07.35-.1.57h-.64l.12-.59h0a1.43,1.43,0,0,1-1.27.68,1.11,1.11,0,0,1-1.24-1.17,3.84,3.84,0,0,1,.09-.68l.41-2h.68l-.46,2.23a2.47,2.47,0,0,0,0,.35.64.64,0,0,0,.68.67c.84,0,1.26-.91,1.35-1.37l.4-1.88h.68Z"/><path class="cls-3" d="M139.3,37.19c0-.15.07-.35.1-.57H140l-.12.59h0a1.43,1.43,0,0,1,1.27-.68,1,1,0,0,1,.31.07l-.15.6a1,1,0,0,0-.29-.07c-.85,0-1.26.92-1.36,1.38l-.39,1.83h-.68Z"/><path class="cls-3" d="M142.65,34.87h.68L142.87,37h0a1.43,1.43,0,0,1,1.18-.49A1.31,1.31,0,0,1,145.4,38c0,1.36-.64,2.48-1.88,2.48a1.17,1.17,0,0,1-1.25-.71h0l-.12.62h-.64Zm.78,5c.78,0,1.24-.94,1.24-1.86a.8.8,0,0,0-.83-.92c-.81,0-1.34.89-1.34,1.81A.9.9,0,0,0,143.43,39.87Z"/><path class="cls-3" d="M146.78,36.62h.69l-.79,3.72H146Zm.91-.83h-.77l.16-.77h.77Z"/><path class="cls-3" d="M150.36,37.28a1.77,1.77,0,0,0-.75-.19c-.3,0-.69.08-.69.45,0,.63,1.27.66,1.27,1.7a1.27,1.27,0,0,1-1.41,1.19,2.65,2.65,0,0,1-1.09-.18l.14-.59a2.22,2.22,0,0,0,.85.21c.37,0,.78-.15.78-.57,0-.64-1.27-.73-1.27-1.67s.79-1.1,1.4-1.1a2.53,2.53,0,0,1,1,.21Z"/><path class="cls-3" d="M152,34.87h.69l-.46,2.22h0a1.42,1.42,0,0,1,1.18-.56,1.11,1.11,0,0,1,1.24,1.17,3.84,3.84,0,0,1-.09.68l-.41,2h-.68l.45-2.22a1.7,1.7,0,0,0,0-.35.64.64,0,0,0-.68-.68c-.84,0-1.26.92-1.35,1.38l-.4,1.87h-.68Z"/><path class="cls-3" d="M158.18,40.28a5.11,5.11,0,0,1-1.1.15,1.51,1.51,0,0,1-1.71-1.68,2.13,2.13,0,0,1,2-2.22A1.29,1.29,0,0,1,158.8,38a4.63,4.63,0,0,1-.06.67h-2.62a1,1,0,0,0,0,.24c0,.78.49,1,1.15,1a2.82,2.82,0,0,0,1-.22Zm-.09-2.16a1.49,1.49,0,0,0,0-.28.71.71,0,0,0-.79-.75,1.28,1.28,0,0,0-1.14,1Z"/><path class="cls-3" d="M162.82,39.11c-.09.41-.16.82-.22,1.23H162c0-.17.07-.38.13-.57h0a1.27,1.27,0,0,1-1.27.66,1.41,1.41,0,0,1-1.38-1.56,2.1,2.1,0,0,1,1.93-2.34,1.26,1.26,0,0,1,1.2.7h0l.49-2.36h.68Zm-1.76.76c.86,0,1.25-1.07,1.25-1.77a.92.92,0,0,0-.92-1c-.81,0-1.24,1-1.24,1.73S160.43,39.87,161.06,39.87Z"/><path class="cls-3" d="M169.3,39a2.82,2.82,0,0,0,.61-1.38h.65a3.28,3.28,0,0,1-.9,1.91l.55.85h-.81l-.25-.39a2.15,2.15,0,0,1-1.34.48c-1.07,0-1.74-.51-1.74-1.43a1.67,1.67,0,0,1,1.46-1.53,1.74,1.74,0,0,1-.39-1.1,1.33,1.33,0,0,1,1.41-1.21c.71,0,1.37.32,1.37,1.13s-.74,1.2-1.43,1.46Zm-1.45-1c-.49.13-1,.4-1,1a.91.91,0,0,0,1,.91,1.68,1.68,0,0,0,1-.42Zm1.43-1.62c0-.44-.32-.62-.7-.62a.72.72,0,0,0-.76.73,1.44,1.44,0,0,0,.35.83C168.6,37.16,169.28,36.88,169.28,36.34Z"/><path class="cls-3" d="M175.33,36.53A1.52,1.52,0,0,1,177,38.16a2.06,2.06,0,0,1-2.07,2.27,1.53,1.53,0,0,1-1.7-1.66A2.07,2.07,0,0,1,175.33,36.53Zm-.43,3.34c.77,0,1.35-.87,1.35-1.71a1,1,0,0,0-.94-1.07c-.92,0-1.37,1-1.37,1.73A.93.93,0,0,0,174.9,39.87Z"/><path class="cls-3" d="M178.07,37.85c.07-.41.14-.82.19-1.23h.65l-.13.57h0a1.46,1.46,0,0,1,1.32-.66A1.3,1.3,0,0,1,181.44,38c0,1.36-.63,2.48-1.87,2.48-.65,0-1-.22-1.21-.64h0l-.44,2.08h-.69Zm1.41,2c.78,0,1.24-.94,1.24-1.86a.81.81,0,0,0-.84-.92c-.8,0-1.33.89-1.33,1.81A.9.9,0,0,0,179.48,39.87Z"/><path class="cls-3" d="M185,40.28a5.11,5.11,0,0,1-1.1.15,1.51,1.51,0,0,1-1.72-1.68,2.13,2.13,0,0,1,2-2.22,1.29,1.29,0,0,1,1.4,1.43,3.53,3.53,0,0,1-.07.67h-2.62a1.94,1.94,0,0,0,0,.24c0,.78.48,1,1.15,1a2.82,2.82,0,0,0,1.05-.22Zm-.09-2.16a1.42,1.42,0,0,0,0-.28.71.71,0,0,0-.78-.75,1.27,1.27,0,0,0-1.14,1Z"/><path class="cls-3" d="M186.75,37.19c0-.15.08-.35.11-.57h.64l-.12.59h0a1.42,1.42,0,0,1,1.27-.68,1.11,1.11,0,0,1,1.24,1.17,3.84,3.84,0,0,1-.09.68l-.41,2h-.69l.46-2.22a1.7,1.7,0,0,0,0-.35.65.65,0,0,0-.68-.68c-.84,0-1.26.92-1.36,1.38l-.39,1.87h-.69Z"/><path class="cls-3" d="M193.47,40.28a5.11,5.11,0,0,1-1.1.15,1.51,1.51,0,0,1-1.72-1.68,2.13,2.13,0,0,1,2-2.22,1.3,1.3,0,0,1,1.4,1.43,3.53,3.53,0,0,1-.07.67H191.4a1.94,1.94,0,0,0,0,.24c0,.78.48,1,1.15,1a2.82,2.82,0,0,0,1.05-.22Zm-.09-2.16c0-.11,0-.19,0-.28a.71.71,0,0,0-.79-.75,1.27,1.27,0,0,0-1.13,1Z"/><path class="cls-3" d="M198.1,39.11c-.08.41-.16.82-.21,1.23h-.64c0-.17.07-.38.12-.57h0a1.28,1.28,0,0,1-1.27.66,1.41,1.41,0,0,1-1.38-1.56,2.1,2.1,0,0,1,1.93-2.34,1.24,1.24,0,0,1,1.19.7h0l.49-2.36H199Zm-1.75.76c.86,0,1.25-1.07,1.25-1.77a.92.92,0,0,0-.93-1c-.81,0-1.23,1-1.23,1.73S195.72,39.87,196.35,39.87Z"/><path class="cls-3" d="M202.27,34.87H203L202.5,37h0a1.47,1.47,0,0,1,1.19-.49A1.3,1.3,0,0,1,205,38c0,1.36-.63,2.48-1.87,2.48a1.18,1.18,0,0,1-1.26-.71h0l-.12.62h-.65Zm.78,5c.78,0,1.24-.94,1.24-1.86,0-.63-.35-.92-.83-.92-.8,0-1.33.89-1.33,1.81A.9.9,0,0,0,203.05,39.87Z"/><path class="cls-3" d="M207.78,36.53a1.52,1.52,0,0,1,1.65,1.63,2.06,2.06,0,0,1-2.08,2.27,1.53,1.53,0,0,1-1.69-1.66A2.07,2.07,0,0,1,207.78,36.53Zm-.43,3.34c.77,0,1.35-.87,1.35-1.71a1,1,0,0,0-.95-1.07c-.91,0-1.36,1-1.36,1.73A.93.93,0,0,0,207.35,39.87Z"/><path class="cls-3" d="M211.19,38.38l-.78-1.76h.75l.55,1.34,1.12-1.34h.83l-1.58,1.79.9,1.93h-.77l-.64-1.46-1.24,1.46h-.86Z"/><path class="cls-3" d="M216.54,36.62h.69l-.79,3.72h-.68Zm.92-.83h-.78l.16-.77h.78Z"/><path class="cls-3" d="M218,36.62h.83l.18-.86.74-.26-.24,1.12h1l-.11.56h-1l-.35,1.59a6.92,6.92,0,0,0-.1.7c0,.27.14.4.49.4a1.28,1.28,0,0,0,.48-.09l-.1.57a2.32,2.32,0,0,1-.67.08.8.8,0,0,1-.89-.83,5.68,5.68,0,0,1,.13-.87l.32-1.55h-.82Z"/><path class="cls-3" d="M223.49,40.28a5.12,5.12,0,0,1-1.11.15,1.51,1.51,0,0,1-1.71-1.68,2.13,2.13,0,0,1,2-2.22,1.3,1.3,0,0,1,1.4,1.43,3.53,3.53,0,0,1-.07.67h-2.62a1.94,1.94,0,0,0,0,.24c0,.78.48,1,1.14,1a2.74,2.74,0,0,0,1.05-.22Zm-.09-2.16c0-.11,0-.19,0-.28a.71.71,0,0,0-.79-.75,1.29,1.29,0,0,0-1.14,1Z"/><path class="cls-3" d="M225.33,37c0-.13,0-.26.07-.42H226l-.09.51h0a1.38,1.38,0,0,1,1.18-.6,1,1,0,0,1,1,.65,1.66,1.66,0,0,1,1.33-.65,1,1,0,0,1,1,1,3.75,3.75,0,0,1-.11.78L230,40.34h-.68l.49-2.35a1.94,1.94,0,0,0,0-.36.51.51,0,0,0-.54-.54c-.69,0-1.08.81-1.21,1.38l-.41,1.87H227l.5-2.35a1.94,1.94,0,0,0,0-.36.51.51,0,0,0-.54-.54c-.7,0-1.08.81-1.21,1.38l-.41,1.87h-.69Z"/><path class="cls-3" d="M233.51,37.28a1.77,1.77,0,0,0-.75-.19c-.29,0-.69.08-.69.45,0,.63,1.27.66,1.27,1.7a1.26,1.26,0,0,1-1.41,1.19,2.56,2.56,0,0,1-1.08-.18l.13-.59a2.26,2.26,0,0,0,.85.21c.37,0,.78-.15.78-.57,0-.64-1.27-.73-1.27-1.67s.79-1.1,1.4-1.1a2.49,2.49,0,0,1,1,.21Z"/><path class="cls-4" d="M28,36a1.19,1.19,0,1,1-.85,1.46A1.2,1.2,0,0,1,28,36Z"/><path class="cls-4" d="M33.24,33.18a6.33,6.33,0,0,0-4.13-2.29l-.72-2.71h0L28,26.78l-.13-.49-2.25-8.41a1.78,1.78,0,0,1,1.25-2.17l4.23-1.14,2.62,9.77,2.57-3.82,4.13,2-2.62-9.77L42,11.64a1.78,1.78,0,0,1,2.17,1.26l3.88,14.47a1.78,1.78,0,0,1-1.25,2.17L36.72,32.25h0Z"/><path class="cls-4" d="M23.48,38.46A5,5,0,1,0,27,32.33,5,5,0,0,0,23.48,38.46Zm2.41-.64A2.52,2.52,0,1,1,29,39.6,2.51,2.51,0,0,1,25.89,37.82Z"/><path class="cls-4" d="M34.64,37a6,6,0,0,0-.21-1.49,6.42,6.42,0,0,0-.4-1.09l14-3.76a1.32,1.32,0,1,1,.68,2.56h0ZM10.85,9.85a2.21,2.21,0,0,0,4.36.67L20,11.93l1.41,5.33,1.07,17.4c.1-.22.21-.45.33-.66a6.27,6.27,0,0,1,3.53-2.85v0a3.4,3.4,0,0,1,.34-.12,7.78,7.78,0,0,1,.92-.17L22.2,10.44a1.22,1.22,0,0,0-1.09-.92L13.25,7.84A2.21,2.21,0,0,0,10.85,9.85Z"/></g></svg>