<svg xmlns="http://www.w3.org/2000/svg" viewBox="0 0 245 50"><defs><style>.cls-1{fill:#f4f4f5;}.cls-2{fill:#414042;}.cls-3{fill:#4d4d4f;}.cls-4{fill:#3dae2b;}</style></defs><title>Banner245-FREEShipping</title><g id="Layer_1" data-name="Layer 1"><rect class="cls-1" width="245" height="50"/></g><g id="Layer_3" data-name="Layer 3"><path class="cls-2" d="M75.08,19h9.67l-.54,2.38H78.33l-.73,2.75h5.68l-.56,2.38H77.13l-1.22,5.06H72Z"/><path class="cls-2" d="M86.77,19h4.62c2.75,0,6.07.09,6.07,3.21,0,2.21-2,3-4.21,3.22v0c1.14.09,1.52,1.42,1.72,2.23l1,3.87H92.16l-.75-3.2c-.37-1.64-.5-1.77-2.24-1.77h-.41l-1.16,5H83.73Zm2.55,5.22h1.3c1.68,0,3-.36,3-1.54,0-.9-.63-1.28-1.78-1.3H90Z"/><path class="cls-2" d="M100.64,19h10.17l-.56,2.38h-6.36L103.23,24h6l-.61,2.38h-6l-.7,2.84h6.6L108,31.57H97.54Z"/><path class="cls-2" d="M113.29,19h10.17l-.56,2.38h-6.36L115.88,24h6l-.6,2.38h-6l-.71,2.84h6.61l-.56,2.38H110.18Z"/><path class="cls-2" d="M140.93,21.85a8.13,8.13,0,0,0-3.19-.58c-1.53,0-2.78.2-2.78,1.21,0,1.78,5.61,1.11,5.61,4.93,0,3.48-3.7,4.38-7.06,4.38a18.46,18.46,0,0,1-4.47-.65l.91-2.56a8.52,8.52,0,0,0,3.56.72c1.2,0,3.09-.2,3.09-1.49,0-2-5.61-1.26-5.61-4.81,0-3.24,3.27-4.21,6.44-4.21a13.26,13.26,0,0,1,4.43.56Z"/><path class="cls-2" d="M144.81,19h3.88l-1.14,4.81h4.57L153.26,19h3.87l-3,12.57h-3.87l1.28-5.38H147l-1.29,5.38h-3.87Z"/><path class="cls-2" d="M159.93,19h3.89l-3,12.57h-3.9Z"/><path class="cls-2" d="M166.51,19h3.85c3.17,0,6.36.29,6.36,3.46s-2.94,4.72-6.42,4.72h-2l-1.08,4.39H163.4Zm2.4,5.8h1c1.53,0,2.91-.47,2.91-2,0-1.21-1-1.46-2-1.46h-1.14Z"/><path class="cls-2" d="M179.16,19H183c3.16,0,6.35.29,6.35,3.46s-2.94,4.72-6.42,4.72h-2l-1.08,4.39h-3.85Zm2.4,5.8h1c1.54,0,2.92-.47,2.92-2,0-1.21-.95-1.46-2-1.46h-1.13Z"/><path class="cls-2" d="M192.11,19H196l-3,12.57h-3.89Z"/><path class="cls-2" d="M198.88,19h4.83l3,8.72h0l2-8.72h3.64l-3.06,12.57h-4.81l-3-8.7h0l-2,8.7H195.8Z"/><path class="cls-2" d="M226.56,22a10.91,10.91,0,0,0-4.18-.69c-3.87,0-5.43,2.38-5.43,4.76,0,2.23,1.64,3.27,3.61,3.27a6,6,0,0,0,1.53-.21l.64-2.49h-2.3l.56-2.38h6.07l-1.72,7a24.12,24.12,0,0,1-5,.56c-4.66,0-7.33-2.4-7.33-5.85,0-4.18,2.88-7.15,9.59-7.15a20.71,20.71,0,0,1,4.82.61Z"/><path class="cls-2" d="M79.82,36.64a4.21,4.21,0,0,1-1.22,2.93,4.26,4.26,0,0,1-3.1,1.12,2.67,2.67,0,0,1-2.87-2.76,4.19,4.19,0,0,1,1.15-2.87,4,4,0,0,1,3-1.24C78.76,33.82,79.82,34.87,79.82,36.64ZM74.16,38a1.49,1.49,0,0,0,1.53,1.64c1.68,0,2.61-1.83,2.61-3.15a1.49,1.49,0,0,0-1.56-1.62C75,34.87,74.16,36.66,74.16,38Z"/><path class="cls-2" d="M81.87,33.94h1.85l1.56,5h0l1.19-5h1.38l-1.58,6.63H84.41l-1.53-5.08h0L81.7,40.57H80.3Z"/><path class="cls-2" d="M98.4,36.64a4.21,4.21,0,0,1-1.22,2.93,4.26,4.26,0,0,1-3.1,1.12,2.67,2.67,0,0,1-2.87-2.76,4.19,4.19,0,0,1,1.15-2.87,4,4,0,0,1,3-1.24C97.34,33.82,98.4,34.87,98.4,36.64ZM92.74,38a1.49,1.49,0,0,0,1.53,1.64c1.68,0,2.61-1.83,2.61-3.15a1.49,1.49,0,0,0-1.56-1.62C93.61,34.87,92.74,36.66,92.74,38Z"/><path class="cls-2" d="M100.45,33.94h1.85l1.56,5h0l1.19-5h1.38l-1.58,6.63H103l-1.53-5.08h0l-1.16,5.08h-1.4Z"/><path class="cls-2" d="M108,33.94h1.46l-1.3,5.59H111l-.25,1H106.4Z"/><path class="cls-2" d="M113.1,33.94h1.53l-1.54,6.63h-1.52Z"/><path class="cls-2" d="M116.12,33.94H118l1.56,5h0l1.19-5h1.38l-1.58,6.63h-1.88l-1.52-5.08h0L116,40.57h-1.4Z"/><path class="cls-2" d="M123.7,33.94H128l-.22,1h-2.86l-.37,1.64h2.55l-.23,1h-2.56l-.43,1.87h2.88l-.25,1h-4.35Z"/><path class="cls-2" d="M138.47,36.64a4.18,4.18,0,0,1-1.23,2.93,4.25,4.25,0,0,1-3.09,1.12,2.66,2.66,0,0,1-2.87-2.76,4.18,4.18,0,0,1,1.14-2.87,4,4,0,0,1,3-1.24C137.4,33.82,138.47,34.87,138.47,36.64ZM132.8,38a1.49,1.49,0,0,0,1.54,1.64c1.67,0,2.6-1.83,2.6-3.15a1.48,1.48,0,0,0-1.56-1.62C133.68,34.87,132.8,36.66,132.8,38Z"/><path class="cls-2" d="M140.43,33.94h1.72c1.35,0,2.91,0,2.91,1.56,0,1.15-.94,1.75-2.13,1.77v0a.76.76,0,0,1,.74.61l.7,2.67h-1.54L142.48,39c-.17-.7-.13-1.2-.92-1.2H141l-.63,2.76H138.9Zm.84,2.83h.53c.78,0,1.73-.22,1.73-1.09,0-.7-.65-.7-1.25-.7h-.61Z"/><path class="cls-2" d="M146.93,33.94h2.19c1.53,0,3.27.53,3.27,2.83,0,1.54-.86,3.8-4.54,3.8h-2.46Zm.18,5.59h.68c2.11,0,3.07-1.13,3.07-3,0-1-.89-1.6-2.21-1.6h-.5Z"/><path class="cls-2" d="M154.47,33.94h4.3l-.22,1H155.7l-.38,1.64h2.55l-.23,1h-2.56l-.43,1.87h2.89l-.25,1h-4.35Z"/><path class="cls-2" d="M160.17,33.94h1.72c1.35,0,2.91,0,2.91,1.56,0,1.15-.94,1.75-2.13,1.77v0a.76.76,0,0,1,.74.61l.7,2.67h-1.54L162.22,39c-.17-.7-.13-1.2-.92-1.2h-.56l-.63,2.76h-1.47Zm.84,2.83h.53c.78,0,1.73-.22,1.73-1.09,0-.7-.65-.7-1.25-.7h-.61Z"/><path class="cls-2" d="M170.24,35.21a3.68,3.68,0,0,0-1.51-.34c-.52,0-1.23.19-1.23.76,0,1.06,2.49,1,2.49,2.84,0,1.63-1.4,2.22-3,2.22a6.71,6.71,0,0,1-2.08-.38l.38-1.13a4.6,4.6,0,0,0,1.79.46c.7,0,1.39-.32,1.39-1,0-1.19-2.49-1-2.49-2.77,0-1.4,1.32-2,2.72-2a5.54,5.54,0,0,1,1.89.3Z"/><path class="cls-2" d="M181.44,36.64a4.18,4.18,0,0,1-1.23,2.93,4.25,4.25,0,0,1-3.09,1.12,2.66,2.66,0,0,1-2.87-2.76,4.15,4.15,0,0,1,1.15-2.87,4,4,0,0,1,3-1.24C180.37,33.82,181.44,34.87,181.44,36.64ZM175.77,38a1.49,1.49,0,0,0,1.54,1.64c1.67,0,2.6-1.83,2.6-3.15a1.48,1.48,0,0,0-1.56-1.62C176.65,34.87,175.77,36.66,175.77,38Z"/><path class="cls-2" d="M182.77,33.94h1.47l.68,5.16h0l3-5.16h1.59l-4.08,6.63h-1.75Z"/><path class="cls-2" d="M190.48,33.94h4.3l-.22,1h-2.85l-.38,1.64h2.55l-.23,1h-2.56l-.43,1.87h2.89l-.25,1H189Z"/><path class="cls-2" d="M196.18,33.94h1.72c1.35,0,2.91,0,2.91,1.56,0,1.15-.94,1.75-2.13,1.77v0a.75.75,0,0,1,.74.61l.7,2.67h-1.54L198.23,39c-.17-.7-.13-1.2-.92-1.2h-.56l-.63,2.76h-1.47Zm.84,2.83h.53c.78,0,1.73-.22,1.73-1.09,0-.7-.65-.7-1.25-.7h-.61Z"/><path class="cls-2" d="M209.26,35.22a3.75,3.75,0,0,0-1.58-.35l-.4,1.73c.86.37,1.8.83,1.8,1.84,0,1.47-1.17,2.25-2.71,2.25l-.19.82h-.54l.19-.82a5.39,5.39,0,0,1-2-.39l.38-1.15a3.81,3.81,0,0,0,1.86.49l.44-2c-.86-.37-1.75-.83-1.75-1.84,0-1.35,1.27-2,2.63-2l.18-.8h.52l-.17.8a5.73,5.73,0,0,1,1.72.32Zm-2.11-.35c-.47,0-.94.27-.94.78s.24.58.59.74Zm-.55,4.77c.58-.11,1-.43,1-1a1,1,0,0,0-.6-.77Z"/><path class="cls-2" d="M210.83,35.39l2.45-1.45h1.32L213,40.57h-1.47l1.25-5.12-1.34.84Z"/><path class="cls-2" d="M221.13,36c0,1.74-.73,4.66-3.18,4.66-1.55,0-2.12-1.07-2.12-2.34,0-1.7.86-4.53,3.21-4.53C220.57,33.82,221.13,34.75,221.13,36ZM219,34.81c-1.35,0-1.81,3.06-1.81,3.79,0,.52.14,1.1.82,1.1,1.26,0,1.67-3.27,1.67-3.91C219.72,35.36,219.61,34.81,219,34.81Z"/><path class="cls-2" d="M226.94,36c0,1.74-.73,4.66-3.18,4.66-1.55,0-2.12-1.07-2.12-2.34,0-1.7.86-4.53,3.22-4.53C226.38,33.82,226.94,34.75,226.94,36Zm-2.08-1.22c-1.36,0-1.82,3.06-1.82,3.79,0,.52.14,1.1.82,1.1,1.26,0,1.68-3.27,1.68-3.91C225.54,35.36,225.42,34.81,224.86,34.81Z"/><path class="cls-2" d="M232.75,36c0,1.74-.73,4.66-3.18,4.66-1.55,0-2.12-1.07-2.12-2.34,0-1.7.86-4.53,3.22-4.53C232.19,33.82,232.75,34.75,232.75,36Zm-2.08-1.22c-1.36,0-1.82,3.06-1.82,3.79,0,.52.14,1.1.82,1.1,1.26,0,1.67-3.27,1.67-3.91C231.34,35.36,231.23,34.81,230.67,34.81Z"/><path class="cls-3" d="M59.86,31.78a1.27,1.27,0,0,0,0-.28V30.06a1.25,1.25,0,0,0-1-1.21v-2.2a5.5,5.5,0,0,0-1-2.95c-3-4.6-6.33-12.38-10.37-12.38h-4.5a1.24,1.24,0,0,0-1.14.75v-.51A2.47,2.47,0,0,0,39.45,9.1H15.7a2.47,2.47,0,0,0-2.47,2.46v20A1.69,1.69,0,0,0,12,33.17v1.59a1.69,1.69,0,0,0,1.68,1.68h1.54a7.4,7.4,0,0,1,14.77,0h9.4a7.4,7.4,0,0,1,14.77,0h4.74a1.68,1.68,0,0,0,1.68-1.68V33.17A1.68,1.68,0,0,0,59.86,31.78ZM48.05,26.07H45a.76.76,0,0,1,0-1.51h3a.76.76,0,0,1,0,1.51Zm5.34-3H45.52a1.24,1.24,0,0,1-1.23-1.24V15a1.24,1.24,0,0,1,1.23-1.23H47.4a2.53,2.53,0,0,1,1.82,1L54,22C54.35,22.58,54.07,23.06,53.39,23.06Z"/><path class="cls-3" d="M22.61,31.67A5.31,5.31,0,1,0,27.92,37,5.3,5.3,0,0,0,22.61,31.67Zm0,8.46A3.16,3.16,0,1,1,25.77,37,3.15,3.15,0,0,1,22.61,40.13Z"/><path class="cls-3" d="M46.78,31.67A5.31,5.31,0,1,0,52.09,37,5.3,5.3,0,0,0,46.78,31.67Zm0,8.46A3.16,3.16,0,1,1,49.94,37,3.15,3.15,0,0,1,46.78,40.13Z"/><path class="cls-3" d="M22.61,35.33a1.65,1.65,0,0,0,0,3.3,1.65,1.65,0,1,0,0-3.3Z"/><path class="cls-3" d="M46.78,35.33A1.65,1.65,0,1,0,48.44,37,1.65,1.65,0,0,0,46.78,35.33Z"/><path class="cls-4" d="M72.54,11.56h1.17v.67h0a1.71,1.71,0,0,1,1.44-.79,1.41,1.41,0,0,1,1.42.86,1.66,1.66,0,0,1,1.51-.86c1.19,0,1.53.82,1.53,1.9v3.05H78.38V13.51c0-.45,0-1.09-.73-1.09s-.94,1-.94,1.62v2.35H75.46V13.51c0-.45,0-1.09-.73-1.09s-.93,1-.93,1.62v2.35H72.54Z"/><path class="cls-4" d="M84.77,16.12a3.34,3.34,0,0,1-1.66.38A2.29,2.29,0,0,1,80.59,14a2.27,2.27,0,0,1,2.24-2.56c1.79,0,2.3,1.23,2.3,2.92H81.79a1.26,1.26,0,0,0,1.38,1.22,3.27,3.27,0,0,0,1.6-.48Zm-.84-2.62c0-.61-.32-1.14-1-1.14a1.09,1.09,0,0,0-1.11,1.14Z"/><path class="cls-4" d="M86.09,11.56h1.17v.67h0a1.72,1.72,0,0,1,1.44-.79,1.43,1.43,0,0,1,1.43.86,1.65,1.65,0,0,1,1.51-.86c1.19,0,1.53.82,1.53,1.9v3.05H91.93V13.51c0-.45,0-1.09-.72-1.09s-.94,1-.94,1.62v2.35H89V13.51c0-.45,0-1.09-.72-1.09s-.94,1-.94,1.62v2.35H86.09Z"/><path class="cls-4" d="M96.66,11.44A2.43,2.43,0,0,1,99.2,14a2.53,2.53,0,0,1-5.06,0A2.42,2.42,0,0,1,96.66,11.44Zm0,4.09c1,0,1.22-.87,1.22-1.67a1.23,1.23,0,1,0-2.43,0C95.45,14.65,95.71,15.53,96.66,15.53Z"/><path class="cls-4" d="M100.21,11.56h1.11v1.1h0a1.49,1.49,0,0,1,1.33-1.22,1.26,1.26,0,0,1,.38,0v1.27a1.22,1.22,0,0,0-.56-.1c-1,0-1,1.27-1,2v1.77h-1.25Z"/><path class="cls-4" d="M105.84,15.09h0L107,11.56h1.27l-1.81,4.79c-.4,1.07-.69,2.12-2,2.12a3,3,0,0,1-.9-.13l.09-.93a1.76,1.76,0,0,0,.65.09.79.79,0,0,0,.81-.87l-1.85-5.07h1.39Z"/><path class="cls-4" d="M112.46,16.31a6.15,6.15,0,0,1-1.42.19,1.94,1.94,0,0,1-2.2-2.16,2.73,2.73,0,0,1,2.61-2.85,1.67,1.67,0,0,1,1.81,1.83,4.74,4.74,0,0,1-.09.87H109.8a1.6,1.6,0,0,0,0,.3c0,1,.62,1.3,1.48,1.3a3.6,3.6,0,0,0,1.35-.29Zm-.11-2.77c0-.14,0-.26,0-.37a.91.91,0,0,0-1-1,1.64,1.64,0,0,0-1.46,1.34Z"/><path class="cls-4" d="M115.43,13.87l-1-2.27h1l.72,1.73,1.43-1.73h1.07l-2,2.3,1.16,2.49h-1l-.82-1.88-1.6,1.88h-1.09Z"/><path class="cls-4" d="M119.25,13.19c.09-.53.19-1.06.25-1.59h.83l-.16.74h0a1.88,1.88,0,0,1,1.69-.85,1.67,1.67,0,0,1,1.71,1.82c0,1.76-.81,3.19-2.41,3.19a1.49,1.49,0,0,1-1.56-.82h0L119,18.36h-.88Zm1.81,2.6c1,0,1.59-1.21,1.59-2.4a1,1,0,0,0-1.07-1.19c-1,0-1.71,1.15-1.71,2.33A1.16,1.16,0,0,0,121.06,15.79Z"/><path class="cls-4" d="M125.19,12.34c0-.2.1-.45.14-.74h.82l-.15.76h0a1.84,1.84,0,0,1,1.63-.87,1.13,1.13,0,0,1,.41.09l-.2.77a1.38,1.38,0,0,0-.38-.09c-1.08,0-1.62,1.18-1.74,1.77l-.5,2.36h-.88Z"/><path class="cls-4" d="M131.74,16.31a6.14,6.14,0,0,1-1.41.19,1.94,1.94,0,0,1-2.21-2.16,2.74,2.74,0,0,1,2.62-2.85,1.66,1.66,0,0,1,1.8,1.83,5.85,5.85,0,0,1-.08.87h-3.37a1.6,1.6,0,0,0,0,.3c0,1,.62,1.3,1.47,1.3a3.6,3.6,0,0,0,1.35-.29Zm-.11-2.77a2.62,2.62,0,0,0,0-.37.92.92,0,0,0-1-1,1.65,1.65,0,0,0-1.46,1.34Z"/><path class="cls-4" d="M136.28,12.45a2.38,2.38,0,0,0-1-.25c-.38,0-.89.11-.89.59,0,.81,1.64.85,1.64,2.18a1.63,1.63,0,0,1-1.82,1.53,3.5,3.5,0,0,1-1.39-.22l.17-.76a2.92,2.92,0,0,0,1.09.27c.48,0,1-.2,1-.74,0-.82-1.64-.94-1.64-2.15,0-1,1-1.41,1.81-1.41a3.32,3.32,0,0,1,1.24.26Z"/><path class="cls-4" d="M139.93,12.45a2.38,2.38,0,0,0-1-.25c-.38,0-.89.11-.89.59,0,.81,1.63.85,1.63,2.18a1.62,1.62,0,0,1-1.81,1.53,3.6,3.6,0,0,1-1.4-.22l.17-.76a3,3,0,0,0,1.1.27c.48,0,1-.2,1-.74,0-.82-1.64-.94-1.64-2.15,0-1,1-1.41,1.8-1.41a3.33,3.33,0,0,1,1.25.26Z"/></g></svg>