<svg xmlns="http://www.w3.org/2000/svg" viewBox="0 0 245 50"><defs><style>.cls-1{fill:#f4f4f5;}.cls-2{fill:#3dae2b;}.cls-3{fill:#414042;}.cls-4{fill:#4e4e50;}</style></defs><title>Banner245-LastCall</title><g id="Layer_1" data-name="Layer 1"><rect class="cls-1" width="245" height="50"/></g><g id="Layer_3" data-name="Layer 3"><path class="cls-2" d="M62.91,10.59h1.18v.67h0a1.72,1.72,0,0,1,1.44-.79,1.42,1.42,0,0,1,1.43.86,1.66,1.66,0,0,1,1.51-.86c1.19,0,1.53.82,1.53,1.9v3.05H68.75V12.54c0-.45,0-1.09-.72-1.09s-.94,1-.94,1.62v2.35H65.83V12.54c0-.45,0-1.09-.72-1.09s-.94,1-.94,1.62v2.35H62.91Z"/><path class="cls-2" d="M75.15,15.15a3.38,3.38,0,0,1-1.67.38A2.29,2.29,0,0,1,71,13a2.27,2.27,0,0,1,2.24-2.56c1.8,0,2.3,1.23,2.3,2.92H72.16a1.26,1.26,0,0,0,1.38,1.22,3.21,3.21,0,0,0,1.61-.49Zm-.85-2.62c0-.61-.32-1.14-1-1.14a1.1,1.1,0,0,0-1.12,1.14Z"/><path class="cls-2" d="M76.47,10.59h1.17v.67h0a1.69,1.69,0,0,1,1.43-.79,1.42,1.42,0,0,1,1.43.86A1.66,1.66,0,0,1,82,10.47c1.19,0,1.53.82,1.53,1.9v3.05H82.3V12.54c0-.45,0-1.09-.72-1.09s-.94,1-.94,1.62v2.35H79.38V12.54c0-.45,0-1.09-.72-1.09s-.94,1-.94,1.62v2.35H76.47Z"/><path class="cls-2" d="M87,10.47A2.42,2.42,0,0,1,89.57,13a2.53,2.53,0,0,1-5.06,0A2.42,2.42,0,0,1,87,10.47Zm0,4.09c1,0,1.22-.87,1.22-1.68a1.23,1.23,0,1,0-2.43,0C85.83,13.68,86.08,14.56,87,14.56Z"/><path class="cls-2" d="M90.58,10.59H91.7v1.09h0A1.47,1.47,0,0,1,93,10.47a1.36,1.36,0,0,1,.39,0v1.27a1.25,1.25,0,0,0-.57-.11c-1,0-1,1.28-1,2v1.77H90.58Z"/><path class="cls-2" d="M96.21,14.11h0l1.16-3.52h1.28l-1.81,4.79c-.4,1.07-.7,2.12-2,2.12a3.36,3.36,0,0,1-.89-.13l.08-.93a1.76,1.76,0,0,0,.65.09.79.79,0,0,0,.82-.87l-1.85-5.07h1.39Z"/><path class="cls-2" d="M102.83,15.33a5.58,5.58,0,0,1-1.41.2,1.94,1.94,0,0,1-2.21-2.16,2.74,2.74,0,0,1,2.62-2.85,1.66,1.66,0,0,1,1.8,1.83,5.85,5.85,0,0,1-.08.87h-3.37a1.6,1.6,0,0,0,0,.3c0,1,.62,1.3,1.47,1.3a3.6,3.6,0,0,0,1.35-.29Zm-.11-2.76a2.73,2.73,0,0,0,0-.37.92.92,0,0,0-1-1,1.65,1.65,0,0,0-1.47,1.34Z"/><path class="cls-2" d="M105.81,12.89l-1-2.26h1l.71,1.73,1.44-1.73H109l-2,2.3,1.16,2.49h-1l-.83-1.88-1.59,1.88h-1.1Z"/><path class="cls-2" d="M109.62,12.22c.1-.54.19-1.06.26-1.59h.82l-.16.73h0a1.89,1.89,0,0,1,1.7-.84A1.67,1.67,0,0,1,114,12.34c0,1.76-.82,3.19-2.41,3.19-.84,0-1.34-.28-1.56-.82h0l-.57,2.68h-.89Zm1.81,2.6c1,0,1.6-1.21,1.6-2.4A1,1,0,0,0,112,11.23c-1,0-1.72,1.15-1.72,2.33A1.17,1.17,0,0,0,111.43,14.82Z"/><path class="cls-2" d="M115.57,11.36c0-.19.09-.45.13-.73h.83l-.15.76h0a1.83,1.83,0,0,1,1.63-.87,1.31,1.31,0,0,1,.4.08l-.2.78a1.26,1.26,0,0,0-.37-.09c-1.09,0-1.62,1.18-1.75,1.77l-.49,2.36h-.89Z"/><path class="cls-2" d="M122.12,15.33a5.66,5.66,0,0,1-1.42.2,1.94,1.94,0,0,1-2.2-2.16,2.73,2.73,0,0,1,2.61-2.85,1.66,1.66,0,0,1,1.81,1.83,4.74,4.74,0,0,1-.09.87h-3.37a1.6,1.6,0,0,0,0,.3c0,1,.62,1.3,1.48,1.3a3.6,3.6,0,0,0,1.35-.29ZM122,12.57c0-.15,0-.26,0-.37a.91.91,0,0,0-1-1,1.64,1.64,0,0,0-1.46,1.34Z"/><path class="cls-2" d="M126.66,11.48a2.27,2.27,0,0,0-1-.25c-.39,0-.89.11-.89.58,0,.82,1.63.86,1.63,2.19a1.62,1.62,0,0,1-1.81,1.53,3.6,3.6,0,0,1-1.4-.22l.17-.76a3,3,0,0,0,1.1.27c.48,0,1-.2,1-.74,0-.82-1.63-.94-1.63-2.15,0-1,1-1.41,1.8-1.41a3.41,3.41,0,0,1,1.25.26Z"/><path class="cls-2" d="M130.3,11.48a2.19,2.19,0,0,0-1-.25c-.39,0-.89.11-.89.58,0,.82,1.63.86,1.63,2.19a1.62,1.62,0,0,1-1.81,1.53,3.6,3.6,0,0,1-1.4-.22l.17-.76a3,3,0,0,0,1.1.27c.48,0,1-.2,1-.74,0-.82-1.63-.94-1.63-2.15,0-1,1-1.41,1.8-1.41a3.41,3.41,0,0,1,1.25.26Z"/><path class="cls-3" d="M63.78,17.81h3.7V30.73H72.7v2.85H63.78Z"/><path class="cls-3" d="M82.89,30.06H78l-1.09,3.52H73.29l5.24-15.77H82.6l5.06,15.77H83.87Zm-2.35-9.22h0l-1.88,6.55h3.55Z"/><path class="cls-3" d="M97.88,21a7.42,7.42,0,0,0-3.12-.82c-1.2,0-2.1.55-2.1,1.72,0,2.87,6.21,1.54,6.21,7.14,0,3-2.37,4.79-5.51,4.79a15.38,15.38,0,0,1-4.25-.65l.2-3.08a8.93,8.93,0,0,0,3.46,1c1.18,0,2.31-.59,2.31-1.88,0-3-6.22-1.56-6.22-7.19,0-.47.18-4.49,5.47-4.49a15.68,15.68,0,0,1,3.71.54Z"/><path class="cls-3" d="M103.73,20.66H100.3V17.81h10.57v2.85h-3.43V33.58h-3.71Z"/><path class="cls-3" d="M129.22,21.38a5.82,5.82,0,0,0-3.21-.91c-2.48,0-4.06,2-4.06,5.2s1.78,5.15,4.13,5.15a6.63,6.63,0,0,0,3.23-.83l.14,3.3a12.79,12.79,0,0,1-4,.56c-4.31,0-7.34-3.23-7.34-8.22,0-5.79,3.89-8.09,7.1-8.09a9.75,9.75,0,0,1,4.15.77Z"/><path class="cls-3" d="M139.82,30.06h-4.95l-1.08,3.52h-3.57l5.24-15.77h4.07l5.06,15.77h-3.8Zm-2.35-9.22h0l-1.88,6.55h3.55Z"/><path class="cls-3" d="M146.22,17.81h3.7V30.73h5.23v2.85h-8.93Z"/><path class="cls-3" d="M157.09,17.81h3.7V30.73H166v2.85h-8.93Z"/><path class="cls-3" d="M173.83,17.81h3.71V33.58h-3.71Z"/><path class="cls-3" d="M182.83,20.66h-3.44V17.81H190v2.85h-3.43V33.58h-3.71Z"/><path class="cls-3" d="M191.82,17.81h9.11v2.75H195.4v3.53h5.26v2.76H195.4v4h5.8v2.76h-9.38Z"/><path class="cls-3" d="M216.43,21.11h0l-3.55,12.47H210.4L207,21.11h-.05V33.58h-3.39V17.81h5.59L211.69,28h0l2.76-10.14h5.34V33.58h-3.4Z"/><path class="cls-3" d="M231.4,21a7.46,7.46,0,0,0-3.12-.82c-1.2,0-2.1.55-2.1,1.72,0,2.87,6.21,1.54,6.21,7.14,0,3-2.37,4.79-5.51,4.79a15.38,15.38,0,0,1-4.25-.65l.2-3.08a8.93,8.93,0,0,0,3.46,1c1.17,0,2.3-.59,2.3-1.88,0-3-6.21-1.56-6.21-7.19,0-.47.18-4.49,5.47-4.49a15.59,15.59,0,0,1,3.7.54Z"/><path class="cls-3" d="M62.81,36.84h.91v3.83h1.76v.71H62.81Z"/><path class="cls-3" d="M67.36,36.84h1l1.78,4.54h-1l-.39-1H66.93l-.39,1h-1Zm.5.91h0l-.66,1.88h1.33Z"/><path class="cls-3" d="M73.19,37.68a2.21,2.21,0,0,0-.92-.2.64.64,0,0,0-.72.63c0,.79,2,.46,2,2,0,1-.78,1.37-1.7,1.37a4,4,0,0,1-1.16-.18l.08-.82a2.18,2.18,0,0,0,1,.28c.34,0,.8-.17.8-.58,0-.87-2-.51-2-2,0-1,.79-1.38,1.59-1.38a3.5,3.5,0,0,1,1.09.16Z"/><path class="cls-3" d="M75.19,37.56h-1.3v-.72H77.4v.72H76.1v3.82h-.91Z"/><path class="cls-3" d="M83.09,41.32a5.11,5.11,0,0,1-1,.14,2.18,2.18,0,0,1-2.49-2.27,2.25,2.25,0,0,1,2.49-2.42,2.93,2.93,0,0,1,1,.18l-.06.77a1.94,1.94,0,0,0-1-.24,1.52,1.52,0,0,0-1.52,1.65,1.49,1.49,0,0,0,1.54,1.61,2.5,2.5,0,0,0,1-.18Z"/><path class="cls-3" d="M83.76,36.84h.91v1.84h1.82V36.84h.91v4.54h-.91v-2H84.67v2h-.91Z"/><path class="cls-3" d="M89.75,36.84h1l1.78,4.54h-1l-.39-1H89.32l-.39,1H88Zm.5.91h0l-.66,1.88h1.33Z"/><path class="cls-3" d="M93.1,36.84h1.12L96,40.24h0v-3.4h.87v4.54H95.72L94,38h0v3.39H93.1Z"/><path class="cls-3" d="M101.14,41.32a5.11,5.11,0,0,1-1,.14,2.18,2.18,0,0,1-2.49-2.27,2.25,2.25,0,0,1,2.49-2.42,2.93,2.93,0,0,1,1,.18l-.06.77a1.94,1.94,0,0,0-1-.24,1.52,1.52,0,0,0-1.52,1.65,1.49,1.49,0,0,0,1.54,1.61,2.54,2.54,0,0,0,1-.18Z"/><path class="cls-3" d="M101.81,36.84h2.68v.72h-1.77v1.12h1.62v.71h-1.62v1.28h1.78v.71h-2.69Z"/><path class="cls-3" d="M108.06,37.56h-1.3v-.72h3.51v.72H109v3.82h-.91Z"/><path class="cls-3" d="M112.85,36.77a2.12,2.12,0,0,1,2.22,2.33,2.23,2.23,0,1,1-4.45,0A2.1,2.1,0,0,1,112.85,36.77Zm0,4c.93,0,1.27-.82,1.27-1.64s-.37-1.62-1.27-1.62-1.28.82-1.28,1.62S111.92,40.74,112.85,40.74Z"/><path class="cls-3" d="M120.15,37.68a2.29,2.29,0,0,0-.93-.2.63.63,0,0,0-.71.63c0,.79,2,.46,2,2,0,1-.79,1.37-1.7,1.37a4,4,0,0,1-1.17-.18l.09-.82a2.17,2.17,0,0,0,1,.28c.35,0,.81-.17.81-.58,0-.87-2-.51-2-2,0-1,.79-1.38,1.59-1.38a3.4,3.4,0,0,1,1.08.16Z"/><path class="cls-3" d="M122.62,36.84h1l1.78,4.54h-1l-.39-1h-1.84l-.39,1h-1Zm.5.91h0l-.66,1.88h1.33Z"/><path class="cls-3" d="M125.23,36.84h1l1.17,3.57h0l1.15-3.57h.9l-1.52,4.54h-1.12Z"/><path class="cls-3" d="M130,36.84h2.68v.72h-1.77v1.12h1.61v.71h-1.61v1.28h1.78v.71H130Z"/><path class="cls-3" d="M137.45,36.77a2.13,2.13,0,0,1,2.18,2.34,2.19,2.19,0,1,1-4.36,0A2.13,2.13,0,0,1,137.45,36.77Zm0,4.12c1.05,0,1.49-.87,1.49-1.78s-.49-1.78-1.49-1.77a1.57,1.57,0,0,0-1.5,1.77C136,40,136.4,40.89,137.45,40.89Z"/><path class="cls-3" d="M140.55,36.84h.88l2,3.66h0V36.84h.65v4.54h-.83l-2.06-3.73h0v3.73h-.65Z"/><path class="cls-3" d="M147.09,36.84h2.54v.58h-1.89v1.32h1.72v.57h-1.72v1.5h1.89v.57h-2.54Z"/><path class="cls-3" d="M152.62,36.77a2.13,2.13,0,0,1,2.18,2.34,2.19,2.19,0,1,1-4.36,0A2.13,2.13,0,0,1,152.62,36.77Zm0,4.12c1,0,1.5-.87,1.5-1.78a1.57,1.57,0,0,0-1.5-1.77c-1,0-1.49.85-1.49,1.77S151.57,40.89,152.62,40.89Z"/><path class="cls-3" d="M155.72,36.84h.65v4h1.9v.57h-2.55Z"/><path class="cls-3" d="M164.42,38.93a3,3,0,0,1-.52,1.55l.79.9h-.81l-.37-.44a1.58,1.58,0,0,1-1.3.52,1.3,1.3,0,0,1-1.47-1.27,1.37,1.37,0,0,1,1-1.32,1.62,1.62,0,0,1-.47-1,1,1,0,0,1,1.18-1.06,1,1,0,0,1,1.13,1c0,.58-.52,1-1,1.19l.93,1.05a2.31,2.31,0,0,0,.28-1.1Zm-2.1,2a1.11,1.11,0,0,0,.84-.43l-1.09-1.28c-.34.23-.64.45-.64.9A.84.84,0,0,0,162.32,41Zm0-2.35c.28-.13.69-.41.69-.79a.49.49,0,0,0-.54-.56.53.53,0,0,0-.55.58A1.21,1.21,0,0,0,162.3,38.61Z"/><path class="cls-3" d="M167.24,36.84h1.34A2.23,2.23,0,0,1,171,39.07a2.15,2.15,0,0,1-2.42,2.31h-1.34Zm.65,4h.69a1.52,1.52,0,0,0,1.73-1.71,1.58,1.58,0,0,0-1.65-1.68h-.77Z"/><path class="cls-3" d="M172,36.84h.65v4.54H172Z"/><path class="cls-3" d="M175.84,37.53a2,2,0,0,0-.85-.19c-.36,0-.79.13-.79.6,0,.87,2,.67,2,2.17,0,1-.75,1.35-1.66,1.35a3,3,0,0,1-.93-.19l.07-.6a2.77,2.77,0,0,0,.94.22.81.81,0,0,0,.89-.74c0-1-2-.74-2-2.15,0-.81.64-1.23,1.46-1.23a3.08,3.08,0,0,1,1,.16Z"/><path class="cls-3" d="M180.17,37.59a1.84,1.84,0,0,0-.94-.25,1.68,1.68,0,0,0-1.74,1.77,1.7,1.7,0,0,0,1.71,1.78,2.36,2.36,0,0,0,1-.22l0,.63a2.93,2.93,0,0,1-1,.16,2.23,2.23,0,0,1-2.39-2.37,2.26,2.26,0,0,1,2.4-2.32,2.57,2.57,0,0,1,1,.19Z"/><path class="cls-3" d="M183,36.77a2.14,2.14,0,0,1,2.18,2.34,2.19,2.19,0,1,1-4.37,0A2.14,2.14,0,0,1,183,36.77Zm0,4.12c1,0,1.49-.87,1.49-1.78S184,37.33,183,37.34s-1.5.85-1.5,1.77S181.91,40.89,183,40.89Z"/><path class="cls-3" d="M186.06,36.84h.88l2,3.66h0V36.84h.65v4.54h-.83l-2.05-3.73h0v3.73h-.65Z"/><path class="cls-3" d="M191.66,37.42h-1.41v-.58h3.47v.58h-1.41v4h-.65Z"/><path class="cls-3" d="M194.37,36.84H195v4.54h-.65Z"/><path class="cls-3" d="M196.17,36.84h.88l2,3.66h0V36.84h.65v4.54h-.83l-2.06-3.73h0v3.73h-.65Z"/><path class="cls-3" d="M204.4,39.5c0,1.28-.65,2-1.76,2s-1.76-.68-1.76-2V36.84h.65v2.58c0,.87.27,1.47,1.11,1.47s1.11-.6,1.11-1.47V36.84h.65Z"/><path class="cls-3" d="M205.59,36.84h2.55v.58h-1.9v1.32H208v.57h-1.73v1.5h1.9v.57h-2.55Z"/><path class="cls-3" d="M209.14,36.84h1.34a2.22,2.22,0,0,1,2.41,2.23,2.14,2.14,0,0,1-2.41,2.31h-1.34Zm.65,4h.68a1.53,1.53,0,0,0,1.74-1.71,1.58,1.58,0,0,0-1.66-1.68h-.76Z"/><path class="cls-3" d="M215.68,36.84h.65v4.54h-.65Z"/><path class="cls-3" d="M218.39,37.42H217v-.58h3.47v.58H219v4h-.65Z"/><path class="cls-3" d="M221.13,36.84h2.54v.58h-1.89v1.32h1.72v.57h-1.72v1.5h1.89v.57h-2.54Z"/><path class="cls-3" d="M224.72,36.84h1.07l1.42,3.77,1.4-3.77h1.07v4.54H229V37.46h0l-1.5,3.92h-.64l-1.5-3.92h0v3.92h-.65Z"/><path class="cls-3" d="M232.91,37.53a2,2,0,0,0-.85-.19c-.37,0-.8.13-.8.6,0,.87,2,.67,2,2.17,0,1-.74,1.35-1.65,1.35a2.91,2.91,0,0,1-.93-.19l.06-.6a2.77,2.77,0,0,0,.94.22.81.81,0,0,0,.89-.74c0-1-2-.74-2-2.15,0-.81.64-1.23,1.46-1.23a3,3,0,0,1,1,.16Z"/><path class="cls-4" d="M12.57,43.15a1.51,1.51,0,0,0,2.06.55h0a1.51,1.51,0,0,0,.55-2.06L9.35,31.53A1.52,1.52,0,0,0,7.28,31h0A1.5,1.5,0,0,0,6.73,33Z"/><path class="cls-4" d="M46.21,30.13a1.5,1.5,0,0,0,2.06.55h0a1.5,1.5,0,0,0,.55-2.06L37.44,8.91a1.51,1.51,0,0,0-2.06-.56h0a1.52,1.52,0,0,0-.56,2.07Z"/><path class="cls-4" d="M23.41,40.53l1.91,3.31a.93.93,0,0,0,1.27.34L37.47,37.9a.93.93,0,0,0,.34-1.27l-.71-1.22a.93.93,0,0,0-1.61.92l.25.42-9.28,5.36L25,39.6a.93.93,0,1,0-1.61.93Z"/><path class="cls-4" d="M11,30.6,33.21,11.34,44.6,31.06,16.79,40.71Zm3.09,2L34.4,20.41l-2.18-3.78L13.31,31.34Z"/><rect class="cls-4" x="46.58" y="13.78" width="7.15" height="1.86" transform="translate(-0.63 27.05) rotate(-30)"/><rect class="cls-4" x="41.44" y="8.46" width="7.15" height="1.86" transform="translate(24.3 50.44) rotate(-75)"/><rect class="cls-4" x="51.26" y="18.24" width="1.86" height="7.15" transform="translate(17.61 66.58) rotate(-75)"/></g></svg>